<svg xmlns="http://www.w3.org/2000/svg" xmlns:xlink="http://www.w3.org/1999/xlink" viewBox="0 0 802.82 587.08"><defs><style>.cls-1{fill:none;}.cls-2{isolation:isolate;}.cls-3{fill:#fff;}.cls-4{clip-path:url(#clip-path);}.cls-5{fill:url(#linear-gradient);}.cls-6{fill:#ffad5c;}.cls-7{fill:url(#linear-gradient-2);}.cls-8{fill:url(#linear-gradient-3);}.cls-9{fill:#bcbec0;mix-blend-mode:soft-light;}.cls-10{fill:url(#linear-gradient-4);}.cls-11{fill:url(#linear-gradient-5);}.cls-12,.cls-21{fill:#fff0b3;}.cls-12,.cls-20{mix-blend-mode:overlay;}.cls-13{fill:#823337;}.cls-14{fill:url(#linear-gradient-6);}.cls-15{fill:url(#linear-gradient-7);}.cls-16{fill:url(#linear-gradient-8);}.cls-17{fill:url(#linear-gradient-9);}.cls-18{fill:url(#linear-gradient-10);}.cls-19{fill:url(#linear-gradient-11);}.cls-22{fill:url(#linear-gradient-12);}.cls-23{fill:#018673;}.cls-24{fill:#34a7a4;}.cls-25{fill:url(#linear-gradient-13);}.cls-26{fill:url(#linear-gradient-14);}.cls-27{fill:#893136;}.cls-28{fill:url(#linear-gradient-15);}.cls-29{fill:url(#linear-gradient-16);}.cls-30{fill:#c0755e;}.cls-31{fill:#511f24;}.cls-32{fill:url(#linear-gradient-17);}.cls-33{fill:url(#linear-gradient-18);}.cls-34{fill:url(#linear-gradient-19);}.cls-35{fill:url(#linear-gradient-20);}.cls-36{fill:url(#linear-gradient-21);}.cls-37{fill:url(#linear-gradient-22);}.cls-38{fill:url(#linear-gradient-23);}.cls-39{fill:#61eede;}.cls-40{fill:url(#linear-gradient-24);}.cls-41{fill:url(#linear-gradient-25);}.cls-42{fill:url(#linear-gradient-26);}.cls-43{fill:url(#linear-gradient-27);}.cls-44{fill:url(#linear-gradient-28);}.cls-45{fill:url(#linear-gradient-29);}.cls-46{fill:url(#linear-gradient-30);}.cls-47{fill:url(#linear-gradient-31);}.cls-48{fill:url(#linear-gradient-32);}.cls-49{fill:url(#linear-gradient-33);}.cls-50{fill:#08705e;}.cls-51{fill:url(#linear-gradient-34);}.cls-52{fill:#0c4444;}.cls-53{fill:url(#linear-gradient-35);}.cls-54{fill:url(#linear-gradient-36);}.cls-55{clip-path:url(#clip-path-2);}.cls-56{fill:url(#linear-gradient-37);}.cls-57{fill:url(#linear-gradient-38);}.cls-58{fill:url(#linear-gradient-39);}.cls-59{fill:#ffeb8a;}.cls-60{fill:url(#linear-gradient-40);}.cls-61{fill:url(#linear-gradient-41);}.cls-62{fill:url(#linear-gradient-42);}.cls-63{fill:url(#linear-gradient-43);}.cls-64{fill:url(#linear-gradient-44);}.cls-65{fill:url(#linear-gradient-45);}.cls-66{fill:#135e5a;}.cls-67{fill:url(#linear-gradient-46);}.cls-68{fill:#146d6b;}.cls-69{fill:url(#linear-gradient-47);}.cls-70{fill:#198e56;}.cls-71{fill:url(#linear-gradient-48);}.cls-72{fill:url(#linear-gradient-49);}.cls-73{fill:#69e299;}</style><clipPath id="clip-path" transform="translate(52.82 35.36)"><path class="cls-1" d="M.07,1.77V500H525.66c-.22-.75-.46-1.5-.68-2.25-15.67-54.13-37.19-96.44-81.51-134.81-19.12-16.56-19.47-27.82-31.79-53.19-11.36-23.4-1.22-72.48-6-98.32C401,186.14,393,161.11,375.83,143.78,358.89,126.68,337.51,118.35,317,109c-25.77-11.73-50.17-27.62-58.57-60.8a88.76,88.76,0,0,1,.84-46.45Z"/></clipPath><linearGradient id="linear-gradient" x1="345.8" y1="77.98" x2="345.8" y2="479.68" gradientUnits="userSpaceOnUse"><stop offset="0" stop-color="#ffeb8a"/><stop offset="1" stop-color="#ffad5c"/></linearGradient><linearGradient id="linear-gradient-2" x1="353.3" y1="234.73" x2="325.33" y2="182.89" gradientUnits="userSpaceOnUse"><stop offset="0" stop-color="#018673"/><stop offset="1" stop-color="#0d4e50"/></linearGradient><linearGradient id="linear-gradient-3" x1="244.44" y1="225.26" x2="258.01" y2="140.39" xlink:href="#linear-gradient-2"/><linearGradient id="linear-gradient-4" x1="269.74" y1="246.81" x2="269.74" y2="131.39" gradientUnits="userSpaceOnUse"><stop offset="0" stop-color="#5acf8b"/><stop offset="1" stop-color="#018673"/></linearGradient><linearGradient id="linear-gradient-5" x1="277.25" y1="313.68" x2="277.25" y2="144.58" gradientUnits="userSpaceOnUse"><stop offset="0" stop-color="#b15945"/><stop offset="1" stop-color="#9c3e3f"/></linearGradient><linearGradient id="linear-gradient-6" x1="300.73" y1="-9.49" x2="269.24" y2="162.73" gradientUnits="userSpaceOnUse"><stop offset="0" stop-color="#ffeb8a"/><stop offset="1" stop-color="#1ba365"/></linearGradient><linearGradient id="linear-gradient-7" x1="97.31" y1="207.35" x2="119.37" y2="51.86" xlink:href="#linear-gradient-2"/><linearGradient id="linear-gradient-8" x1="172.42" y1="161.86" x2="172.42" y2="37.22" xlink:href="#linear-gradient-4"/><linearGradient id="linear-gradient-9" x1="46.05" y1="274.37" x2="92.1" y2="124.88" xlink:href="#linear-gradient-5"/><linearGradient id="linear-gradient-10" x1="-27.38" y1="128.58" x2="89.07" y2="-19.15" xlink:href="#linear-gradient-4"/><linearGradient id="linear-gradient-11" x1="145.18" y1="-32.26" x2="145.18" y2="33.44" gradientUnits="userSpaceOnUse"><stop offset="0" stop-color="#5acf8b"/><stop offset="1" stop-color="#34a7a4"/></linearGradient><linearGradient id="linear-gradient-12" x1="-5615.96" y1="-90.71" x2="-5587.23" y2="-90.71" gradientTransform="matrix(-0.99, -0.1, -0.1, 0.99, -5262.41, -216.62)" xlink:href="#linear-gradient-2"/><linearGradient id="linear-gradient-13" x1="395.21" y1="291.98" x2="395.21" y2="350.24" xlink:href="#linear-gradient-2"/><linearGradient id="linear-gradient-14" x1="372.91" y1="353.6" x2="372.91" y2="274.72" xlink:href="#linear-gradient-11"/><linearGradient id="linear-gradient-15" x1="265.28" y1="408.66" x2="265.19" y2="369.29" xlink:href="#linear-gradient-5"/><linearGradient id="linear-gradient-16" x1="140.27" y1="398.59" x2="140.27" y2="271.2" xlink:href="#linear-gradient-5"/><linearGradient id="linear-gradient-17" x1="96.78" y1="357.78" x2="96.78" y2="302.41" gradientUnits="userSpaceOnUse"><stop offset="0" stop-color="#c0755e"/><stop offset="1" stop-color="#b15945"/></linearGradient><linearGradient id="linear-gradient-18" x1="158.02" y1="326.9" x2="158.02" y2="262.66" xlink:href="#linear-gradient-17"/><linearGradient id="linear-gradient-19" x1="19.16" y1="338.13" x2="27.83" y2="338.13" xlink:href="#linear-gradient-2"/><linearGradient id="linear-gradient-20" x1="-6.9" y1="352.57" x2="17.73" y2="352.57" xlink:href="#linear-gradient-2"/><linearGradient id="linear-gradient-21" x1="17.04" y1="348.22" x2="23.93" y2="348.22" xlink:href="#linear-gradient-2"/><linearGradient id="linear-gradient-22" x1="4.06" y1="368.92" x2="22.85" y2="368.92" xlink:href="#linear-gradient-2"/><linearGradient id="linear-gradient-23" x1="21" y1="355.57" x2="47.33" y2="355.57" xlink:href="#linear-gradient-2"/><linearGradient id="linear-gradient-24" x1="-336.88" y1="-387.44" x2="-304.71" y2="-387.44" gradientTransform="translate(294.4 825.98) rotate(15.27)" gradientUnits="userSpaceOnUse"><stop offset="0" stop-color="#34a7a4"/><stop offset="1" stop-color="#146d6b"/></linearGradient><linearGradient id="linear-gradient-25" x1="-102.34" y1="-96.37" x2="-87.01" y2="-96.37" gradientTransform="translate(164.26 487.79) rotate(8.59)" gradientUnits="userSpaceOnUse"><stop offset="0" stop-color="#115a69"/><stop offset="1" stop-color="#164a62"/></linearGradient><linearGradient id="linear-gradient-26" x1="-85.86" y1="-138.46" x2="-69.96" y2="-138.46" xlink:href="#linear-gradient-25"/><linearGradient id="linear-gradient-27" x1="-82.23" y1="-121.87" x2="-63.44" y2="-121.87" xlink:href="#linear-gradient-25"/><linearGradient id="linear-gradient-28" x1="-100.18" y1="-149.47" x2="-89.45" y2="-149.47" xlink:href="#linear-gradient-25"/><linearGradient id="linear-gradient-29" x1="-118.51" y1="-111.38" x2="-106.39" y2="-111.38" xlink:href="#linear-gradient-25"/><linearGradient id="linear-gradient-30" x1="-341.79" y1="-409.41" x2="-326.6" y2="-409.41" gradientTransform="translate(294.4 825.98) rotate(15.27)" xlink:href="#linear-gradient-25"/><linearGradient id="linear-gradient-31" x1="-319.36" y1="-387.77" x2="-298.21" y2="-387.77" gradientTransform="translate(294.4 825.98) rotate(15.27)" xlink:href="#linear-gradient-25"/><linearGradient id="linear-gradient-32" x1="61.26" y1="354.1" x2="61.26" y2="454.84" xlink:href="#linear-gradient-4"/><linearGradient id="linear-gradient-33" x1="121.49" y1="1818.88" x2="121.49" y2="1875.84" gradientTransform="translate(-837.57 -1235.33) rotate(-23.23)" gradientUnits="userSpaceOnUse"><stop offset="0" stop-color="#1ba365"/><stop offset="1" stop-color="#018673"/></linearGradient><linearGradient id="linear-gradient-34" x1="-72.65" y1="20.37" x2="-68.77" y2="105.53" gradientTransform="translate(117.46 338.52) rotate(5.64)" xlink:href="#linear-gradient-2"/><linearGradient id="linear-gradient-35" x1="136.43" y1="375.91" x2="136.43" y2="480.27" gradientUnits="userSpaceOnUse"><stop offset="0" stop-color="#5acf8b"/><stop offset="1" stop-color="#1ba365"/></linearGradient><linearGradient id="linear-gradient-36" x1="84.03" y1="381.74" x2="84.03" y2="510.6" xlink:href="#linear-gradient-11"/><clipPath id="clip-path-2" transform="translate(52.82 35.36)"><path class="cls-1" d="M502.62,437.83c-7.36-1.18-14.87-1.18-22.12-3.12S466,428.5,462.26,421c-2.48-4.92-3.3-10.82-4.07-16.67a29.16,29.16,0,0,0,12.53-3.19h0q.81-.4,1.59-.87l-.06,0a34.91,34.91,0,0,0,7.1-5.46c.93-.92,1.82-1.92,2.72-2.9h0l1-1.14h0c3.28-3.69,6.36-7.67,9.32-11.75h0l.84-1.14h0l1.85-2.55a48.13,48.13,0,0,1-11.25-6.48,25.72,25.72,0,0,0,15.16.92c1-1.39,1.92-2.8,2.87-4.21h0c.27-.4.55-.8.82-1.21h0q3.19-4.76,6.26-9.63h0l.77-1.22h0c2.16-3.47,4.29-7,6.34-10.54,2.33-4,4.85-8.32,7.24-12.8h0l.7-1.34h0c1.5-2.88,2.92-5.83,4.19-8.85h0l.53-1.31h0c.07-.19.15-.37.23-.55a20.4,20.4,0,0,1-6.59-2.9,12.61,12.61,0,0,0,8.05-1.12c.66-2,1.21-4,1.67-6h0a1.55,1.55,0,0,1,0-.21c0-.21.09-.43.14-.65s.08-.35.11-.53h0a48.25,48.25,0,0,0,.94-8.21h0V298c0-.21,0-.41,0-.62v-.21h0a40.15,40.15,0,0,0-.31-4.63h0q-.07-.63-.18-1.26h0c-.19-1.25-.43-2.51-.75-3.76a1.54,1.54,0,0,0-.17-.43h0a1,1,0,0,0-.39-.36l-.09-.05a1.09,1.09,0,0,0-.47-.09H531c-.32,0-.63,0-.94,0l0,0c-.82,0-1.64,0-2.44.12h-.07l-.35.05c-.23,0-.46,0-.69.09v0a32.62,32.62,0,0,0-5.65,1.32h0l-.16.05-.48.17-.37.13h0a45.36,45.36,0,0,0-7.9,3.85v0l-1,.64h0a68.91,68.91,0,0,0-6.23,4.52c-.39.31-.76.66-1.15,1v0l-.93.78v0q-3.68,3.14-7.17,6.56h0l-.83.81c0,.15-.06.29-.09.44h0c-1,4.92-1.62,10.77,0,15.15a71,71,0,0,1-3.57-11.81q-2.26,2.42-4.46,4.91h0l0,0-.17.19-.69.79h0c-1.21,1.39-2.42,2.78-3.6,4.19l-1.1,1.33h0l-1.2,1.44v0c-.83,1-1.66,2-2.48,3-.3,5.63.16,13.57,4.16,19.21,0,0-6.16-4-6.7-16-.6.76-1.17,1.55-1.76,2.32v-.05c-.37.48-.74.95-1.1,1.43v.06q-4.18,5.47-8.12,11.16s0,0,0-.08l-.8,1.18c.29-3.67.52-7.35.72-11h0c0-.64.06-1.27.1-1.91h0c.09-1.65.17-3.3.25-4.94-7.69,4-17,4.15-17,4.15,7.07-1.31,13.12-7.4,17.32-13,0-.07,0-.14,0-.21q.12-3.17.22-6.31h0l.06-1.86h0q.22-6.6.3-13.2l0,0c0-.62,0-1.24,0-1.87l0,0c0-3.78,0-7.57-.13-11.35l0,0c0-.54,0-1.08-.05-1.63l0,0c0-.8,0-1.6-.06-2.4-.15-3.16-.39-6.32-.69-9.47h0c-.05-.49-.09-1-.14-1.46h0c-.1-.9-.16-1.81-.27-2.71a53.12,53.12,0,0,1-9.14.72c3.27-.58,6.15-3.17,8.42-6-.34-2.27-.76-4.52-1.21-6.77h0c-.1-.51-.21-1-.32-1.52a0,0,0,0,1,0,0,118.41,118.41,0,0,0-3.34-12.39v0c-.18-.56-.36-1.12-.56-1.67a.57.57,0,0,0-.21-.31.4.4,0,0,0-.29-.12h0a.41.41,0,0,0-.26.09,48.94,48.94,0,0,0-8.65,8.18.13.13,0,0,1,0-.06c-.33.38-.65.77-1,1.16a.14.14,0,0,0,0,.07,63.49,63.49,0,0,0-6.1,9.25s0,0,0-.06c-.28.5-.54,1-.8,1.51a88.72,88.72,0,0,0-4.7,11v0c-.22.59-.42,1.18-.62,1.78,0,0,0,0,0,.05-.31.91-.63,1.8-.91,2.72,1.4,6,3.64,12.95,7.09,17.88a47.89,47.89,0,0,1-9.45-9.08c-.21.9-.38,1.8-.57,2.7l0,0c-.15.69-.29,1.39-.43,2.08v0c-.46,2.33-.89,4.67-1.26,7-.56,3.58-1,7.17-1.46,10.77h0c-.09.69-.17,1.37-.25,2.05l0,0c-.41,3.49-.8,7-1.18,10.5l-.45-2.33v0l-.3-1.53h0c-.09-.46-.18-.94-.27-1.41-.31-1.5-.63-3-1-4.49h0l-.18-.84c0-.08,0-.15-.05-.22v0h0q-.6-2.7-1.28-5.39a44.52,44.52,0,0,1-6.46,6.19c2.58-2.16,4.22-6.34,5.22-10.12h0l.09-.33h0c-.09-.32-.19-.63-.28-.95h0q-1.14-3.94-2.51-7.77l0,0c-.12-.32-.24-.64-.35-1h0c-.14-.39-.27-.8-.42-1.19-.78-2-1.64-4-2.6-6h0c-.16-.31-.31-.62-.47-.92h0a44.31,44.31,0,0,0-3.95-6.3h0c-.06-.09-.13-.17-.2-.26l-.26-.33-.09-.12h0a31.06,31.06,0,0,0-3.32-3.55h0l-.43-.39-.21-.19,0,0h0c-.51-.44-1-.84-1.59-1.24v0c-.2-.15-.41-.31-.62-.45l-.09-.05a.76.76,0,0,0-.34-.16l-.08,0a.74.74,0,0,0-.38.06h0a.75.75,0,0,0-.26.19,26.07,26.07,0,0,0-1.8,2.16h0l-.55.75,0,0a27.65,27.65,0,0,0-1.8,2.95h0a1,1,0,0,1-.07.15l-.21.41-.16.32h0a35.81,35.81,0,0,0-2.2,5.92h0c0,.14-.07.28-.11.41s-.09.33-.13.5,0,.11,0,.16h0c-.38,1.56-.7,3.15-.94,4.77a11.82,11.82,0,0,0,5,4.57,15.23,15.23,0,0,1-5.39-1.19c0,.16,0,.32,0,.48h0c0,.38-.07.75-.1,1.13l0,0c-.19,2.61-.27,5.25-.26,7.89l0,0c0,.41,0,.82,0,1.23h0c0,3.65.19,7.23.34,10.65h0c0,.31,0,.62,0,.92,0,.13,0,.26,0,.39.14,3.35.35,6.7.6,10h0l.09,1.18h0q.36,4.69.86,9.39h0c0,.39.08.79.13,1.19h0c.15,1.39.3,2.78.47,4.17a22.63,22.63,0,0,0,10.43,6.56,33.48,33.48,0,0,1-9.74-1c.11.86.23,1.72.35,2.58h0c.05.39.1.77.16,1.16h0c.08.58.15,1.15.24,1.73a18.57,18.57,0,0,0-14.37,8.27c-4.75,7-6.12,16.18-6.09,25.24l-.18,0c-3.56-.51-7.52-.16-10.2,2.64-2.83,3-3.51,7.93-6,11.29-5.09,6.82-14.66,4.17-21.76,7.77-5.65,2.87-9.25,9.53-11.38,16.3s-3.18,14-5.61,20.62a30.49,30.49,0,0,1-6.33,10.6,143.75,143.75,0,0,1,.65-23,72.21,72.21,0,0,1,14.16-20.54c.59-.59-.25-1.66-.86-1.18-4.46,3.57-9,7.47-12,12.68a139.13,139.13,0,0,1,6-22.83,2.84,2.84,0,0,0,2.33-2.22,47.84,47.84,0,0,1,7.62-15.56c2.26-3.05-1.69-7.28-3.95-4.23a56.39,56.39,0,0,0-8.89,18.39,2.71,2.71,0,0,0,1.1,3.26,143.15,143.15,0,0,0-8.08,43.51,207.94,207.94,0,0,0-7.27-32.76,1.13,1.13,0,0,0,.13-.63A237.23,237.23,0,0,1,309,364.9a1,1,0,0,0-1.87-.64c-4.77,9.66-4.83,20.47-3.57,31.13a192.79,192.79,0,0,0-9.89-22.23,4.1,4.1,0,0,0,1-5,77.54,77.54,0,0,0-16.46-24.33c-3.88-3.82-8.78,3.38-4.9,7.2a66,66,0,0,1,14.06,20.55,4,4,0,0,0,3.81,2.6,191.46,191.46,0,0,1,9.4,20.82c-7.15-7.17-16.92-9.54-26.16-11.47-1.06-.22-1.63,1.81-.55,2.19a87.33,87.33,0,0,1,29.59,17.56s.08,0,.12.07a205.92,205.92,0,0,1,9.92,50.14l-.25.16a155.84,155.84,0,0,0-12.4-22.59,1.08,1.08,0,0,0,0-.53,189.08,189.08,0,0,1-7.68-32.5c-.16-1.11-1.42-.95-1.6.05-1.64,9,.66,17.46,4,25.43a140.49,140.49,0,0,0-12.56-14.45,3.45,3.45,0,0,0-.34-4.21,55.16,55.16,0,0,0-18.16-14.14c-3.86-1.84-6.13,5.25-2.27,7.09a46.92,46.92,0,0,1,15.46,11.9,3,3,0,0,0,3.55.9A138.38,138.38,0,0,1,293,424.09c-7.16-3.49-15.31-2.44-23-1.19-.88.14-.89,1.9,0,1.87a65.3,65.3,0,0,1,27,4.94s.07,0,.11,0a152.37,152.37,0,0,1,14.05,24.9c-.35.14-.69.32-1.05.43-4.93,1.47-10.17-.33-15.18.58-5.92,1.08-11.17,6.2-13.14,12.82-1.34,4.52-1.22,9.44-1.88,14.17s-2.44,9.73-6.13,11.81c-2.93,1.66-6.44,1.11-9.55,2.23a11.55,11.55,0,0,0-4.66,3.33H568.17C558,467.58,531.9,442.52,502.62,437.83ZM461.19,361.2c.05-.34.08-.69.13-1a29.55,29.55,0,0,0,4.53,8.88,32.14,32.14,0,0,1-5.17-4.47C460.86,363.45,461,362.32,461.19,361.2ZM421,352.45c-1,.07-1.64.05-1.64.05a18.5,18.5,0,0,0,1.82-.79Zm4.65-28.25c-4.15,5.5-8.54,5.34-8.54,5.34,4.35-1.76,7.29-6.36,9.07-10.16C426,321,425.84,322.6,425.66,324.2Zm3,20.84c.35-.48.66-.94.94-1.39a12.33,12.33,0,0,0,2.58,2.25A29.89,29.89,0,0,1,428.7,345Z"/></clipPath><linearGradient id="linear-gradient-37" x1="400.21" y1="1807.5" x2="424.59" y2="1807.5" gradientTransform="translate(-837.72 -1049.97) rotate(-24.37)" xlink:href="#linear-gradient-2"/><linearGradient id="linear-gradient-38" x1="424.16" y1="1802.26" x2="432.64" y2="1802.26" gradientTransform="translate(-837.72 -1049.97) rotate(-24.37)" xlink:href="#linear-gradient-2"/><linearGradient id="linear-gradient-39" x1="412.43" y1="1822.94" x2="427.98" y2="1822.94" gradientTransform="translate(-837.72 -1049.97) rotate(-24.37)" xlink:href="#linear-gradient-2"/><linearGradient id="linear-gradient-40" x1="-6400.46" y1="1399.25" x2="-6379.13" y2="1399.25" gradientTransform="matrix(-0.95, 0.31, 0.31, 0.95, -6187.53, 1043.15)" xlink:href="#linear-gradient-2"/><linearGradient id="linear-gradient-41" x1="-6281.21" y1="535.93" x2="-6265.26" y2="535.93" gradientTransform="matrix(-1, 0.04, 0.04, 1, -5969.13, 163.33)" xlink:href="#linear-gradient-2"/><linearGradient id="linear-gradient-42" x1="280.69" y1="704.84" x2="310.34" y2="704.84" gradientTransform="translate(-82.91 -274.12) rotate(-6.38)" xlink:href="#linear-gradient-2"/><linearGradient id="linear-gradient-43" x1="309.64" y1="699.2" x2="318.48" y2="699.2" gradientTransform="translate(-82.91 -274.12) rotate(-6.38)" xlink:href="#linear-gradient-2"/><linearGradient id="linear-gradient-44" x1="294.36" y1="724.49" x2="315.84" y2="724.49" gradientTransform="translate(-82.91 -274.12) rotate(-6.38)" xlink:href="#linear-gradient-2"/><linearGradient id="linear-gradient-45" x1="-4104.55" y1="-951.93" x2="-4104.55" y2="-884.12" gradientTransform="matrix(-0.77, -0.64, -0.64, 0.77, -3244.25, -1590.43)" xlink:href="#linear-gradient-24"/><linearGradient id="linear-gradient-46" x1="740.58" y1="1220.54" x2="740.58" y2="1276.56" gradientTransform="translate(-512.81 -789.49) rotate(-8.89)" gradientUnits="userSpaceOnUse"><stop offset="0" stop-color="#61eede"/><stop offset="1" stop-color="#146d6b"/></linearGradient><linearGradient id="linear-gradient-47" x1="318.26" y1="-98.02" x2="322.77" y2="1.15" gradientTransform="translate(117.46 338.52) rotate(5.64)" xlink:href="#linear-gradient-6"/><linearGradient id="linear-gradient-48" x1="304.59" y1="413.89" x2="341.21" y2="478.66" xlink:href="#linear-gradient-2"/><linearGradient id="linear-gradient-49" x1="436.69" y1="379.93" x2="436.69" y2="494.08" xlink:href="#linear-gradient-4"/></defs><title>newbg</title><g class="cls-2"><g id="OBJECT"><rect class="cls-3" x="52.82" y="35.36" width="750" height="500"/><g class="cls-4"><rect class="cls-5" x="52.89" y="37.12" width="585.81" height="498.23"/><path class="cls-6" d="M119.46,147.66S82.93,344.34,84.33,397.74l-48.65-.06,62.07-243.8Z" transform="translate(52.82 35.36)"/><path class="cls-6" d="M21.59,386l-.18-.1C36,432.4,21.59,386,21.59,386Z" transform="translate(52.82 35.36)"/><path class="cls-6" d="M65,151.35l-6.7-3.69c-2.95,14.91-14.13,29.08-20.75,36.4C43.76,147.62,49,121.18,49,121.18L33.2,98.45c.26,44.3-61.7,257.39-61.7,258.74s46.66,26.91,49.91,28.7c-.1-.33-.2-.65-.31-1-9.18-29.32,3.17-120.66,14.24-187.65C51.91,191,65,151.35,65,151.35Z" transform="translate(52.82 35.36)"/><path class="cls-6" d="M129.47,386.79,179,371.31S155.44,150.47,160,119s-24.07,3.38-24.07,3.38,4.5,51,5.57,110.6c-2-3.65-4.71-10.2-7.24-21.64l-6.46,5.12s6.32,31.71,13.92,36.64C141.9,302.68,139.23,354.86,129.47,386.79Z" transform="translate(52.82 35.36)"/><path class="cls-6" d="M392.07,193.22l-3.3-2.84s-9.89,14.13-22.14,15.12a296.51,296.51,0,0,1,11.07-34.23l-10.63-9c-14.74,37.1-42.38,155.44-42.38,155.44H354c-1.86-37.27,3.18-71.64,9.09-97.7C368.13,217.39,386.29,207.23,392.07,193.22Z" transform="translate(52.82 35.36)"/><path class="cls-7" d="M377.4,162.4c-6.38-15.56-20-24-32.57-31.31a2.94,2.94,0,0,0-3.09-.05c-22.41-10.41-51.14-20.82-71.29,1-8.37,9-13.54,24-12.71,37.37.41,6.52,2.57,12.42,6.94,16.61,4.22,4.05,9.72,5.94,13.73,10.26,4.55,4.92,6.09,12.46,8.32,19a56.62,56.62,0,0,0,8.83,16.8c7.46,9.45,18.3,14.9,29.29,12.43,10.76-2.42,18.31-11.42,20.82-23.7.67-3.26,1.11-6.9,2.87-9.64s4.6-3.7,7.37-4.42c5.34-1.38,10.7-2,15.25-5.91C381.43,191.83,382.64,175.17,377.4,162.4Z" transform="translate(52.82 35.36)"/><path class="cls-8" d="M321.39,164.65c-.53-13.48-3.87-26.7-10.7-38.2-6.43-10.83-15.26-19.58-25.73-24.57-12.65-6-26.45-5-39.43-.92-23.18,7.29-54.61,22.11-57.55,54.43-1.31,14.41,4.51,26.23,14.55,34.05,5,3.9,10.75,7.11,14.24,13.09,3.57,6.14,5.09,13.53,9.19,19.32,9.24,13.05,25,14.75,38.21,11.14,14.94-4.06,29.29-12.84,41.74-23.25C318.71,194.7,321,171.6,321.39,164.65Z" transform="translate(52.82 35.36)"/><path class="cls-9" d="M265.54,223.8c-5.58,6.74-14.07,10.38-22.05,8.46-7.72-1.86-14.47-8.23-17.56-16.77-2-5.5-2-11.6-4.33-17A23.09,23.09,0,0,0,212.33,188c-6.29-3.91-15.36-5.22-18-13.95-1.68-5.63-1.29-11.74-1.22-17.59a67.45,67.45,0,0,0-1.39-16,48.41,48.41,0,0,0-3.77,15c-1.31,14.41,4.51,26.23,14.55,34.05,5,3.9,10.75,7.11,14.24,13.09,3.57,6.14,5.09,13.53,9.19,19.32,9.24,13.05,25,14.75,38.21,11.14a83.93,83.93,0,0,0,11.33-4C275.55,223.64,269.63,218.86,265.54,223.8Z" transform="translate(52.82 35.36)"/><path class="cls-10" d="M318.22,136.56c-1.84-13.56-10.36-22.74-20-29.35-11.34-7.76-24.85-16.6-38.43-14.4-14.14,2.28-24.7,14.37-34.22,25.82a4.27,4.27,0,0,0-.48,4.79c-5.26,9.63-5.74,22.07-1.55,32.37,4.39,10.8,13.95,17.22,24,17.59a24.48,24.48,0,0,0,14.1-3.89c3.89-2.5,9-10.07,13.87-8.24,3.55,1.33,1,4.65-.72,6.76s-3.76,4.35-5.46,6.73c-3.15,4.42-5.56,9.85-4.41,15.78,2.39,12.29,15.21,15.67,24.29,13,11-3.24,19.19-13.63,23.61-25.5C317.39,165.66,320,150,318.22,136.56Z" transform="translate(52.82 35.36)"/><path class="cls-11" d="M277.6,238.51c1.22-5.79,2.51-11.59,3.83-17.4,22.78-21.75,39.89-51.13,48.82-83.56l-5.87-2.36c-8,26-21.59,49.44-38.89,67.85,1.82-8.23,3.57-16.5,5.1-24.87q1.4-7.69,2.53-15.46c.73-5.19,1.35-10.4,1.83-15.65s.77-10.51.91-15.8,0-10.58-.24-15.86l-6.2.32c.38,20.24-2.71,40.4-7.09,60.16-4.15,18.73-9.51,37.21-14.32,56.13a301.21,301.21,0,0,1-14.93-127.55l-6.15-1a313.85,313.85,0,0,0-.22,82.84,74.63,74.63,0,0,1-9.59-11.82c-4.94-7.8-7.26-16.29-6.54-23.91l-6.17-.8c-.89,9.44,1.85,19.76,7.73,29,4.61,7.29,10.44,13.11,16.22,18.64A303.53,303.53,0,0,0,263.05,253c-.91,4.23-1.77,8.49-2.55,12.78-.92,5.19-1.74,10.42-2.41,15.72s-1.14,10.63-1.47,16-.4,10.79-.31,16.22.47,10.89,1.06,16.34,1.51,10.87,2.68,16.26a150.51,150.51,0,0,0,4.53,15.88L278.64,355a128.24,128.24,0,0,1-4.36-13.33c-1.18-4.59-2.12-9.29-2.86-14.07s-1.18-9.65-1.49-14.55-.34-9.84-.26-14.8C270.06,278.36,273.42,258.39,277.6,238.51Z" transform="translate(52.82 35.36)"/><path class="cls-12" d="M237.48,198.32c0,.79-1.17,1.43-2.61,1.43s-2.6-.64-2.6-1.43,1.16-1.43,2.6-1.43S237.48,197.53,237.48,198.32Z" transform="translate(52.82 35.36)"/><path class="cls-12" d="M340.76,187.53c0,.79-1.17,1.43-2.61,1.43s-2.6-.64-2.6-1.43,1.16-1.43,2.6-1.43S340.76,186.74,340.76,187.53Z" transform="translate(52.82 35.36)"/><path class="cls-12" d="M329.27,193.62c0,1-1.43,1.76-3.2,1.76s-3.2-.79-3.2-1.76,1.43-1.76,3.2-1.76S329.27,192.65,329.27,193.62Z" transform="translate(52.82 35.36)"/><ellipse class="cls-12" cx="390.1" cy="233.68" rx="5.35" ry="2.94"/><ellipse class="cls-12" cx="293.04" cy="242.68" rx="5.35" ry="2.94"/><path class="cls-13" d="M239,177.3c-.66-.92-1.31-1.85-1.92-2.82-4.94-7.8-7.26-16.29-6.54-23.91l-6.17-.8c-.89,9.44,1.85,19.76,7.73,29,.46.73.94,1.44,1.43,2.14a29.56,29.56,0,0,0,5.17-3.4Z" transform="translate(52.82 35.36)"/><path class="cls-13" d="M324.38,135.19a182.08,182.08,0,0,1-15.18,35.36c1.18,1,2.33,2.14,3.43,3.32.77.82,1.51,1.69,2.22,2.59a193.24,193.24,0,0,0,15.4-38.91Z" transform="translate(52.82 35.36)"/><path class="cls-13" d="M252.84,107l-6.52,1.19a313.71,313.71,0,0,0-1.18,63.25c2.64-2.84,5.18-5.83,7.87-8.61A303.53,303.53,0,0,1,252.84,107Z" transform="translate(52.82 35.36)"/><path class="cls-13" d="M289.42,115.72a223.43,223.43,0,0,1-3.3,40.73c.91.45,1.81.9,2.7,1.36q2.32,1.17,4.64,2.4c.58-4.37,1.09-8.75,1.49-13.15.45-5.24.77-10.51.91-15.8s0-10.58-.24-15.86Z" transform="translate(52.82 35.36)"/><path class="cls-14" d="M365.82,130.22c-1.63-19.52-12.92-37.83-30.92-37.75-9.82,0-19.25,4.3-28.77-.5C297.46,87.6,291,79.13,284.21,71.75,271.1,57.46,254.62,48.9,236.43,51s-34.81,14.57-44,33c-4.76,9.52-7.72,22.24-2.27,32.27,2.55,4.69,6.42,7.86,10,11.39,2.26,2.23,5.39,5.74,6.27,9.56A24,24,0,0,0,208,159.76a20.05,20.05,0,0,0,21.78,8.66c8-2,14.26-8.57,18.72-16.33,4.15-7.22,6.89-15.75,12-22.2,5.33-6.78,13.23-9,20.42-4.79,7.41,4.35,8.13,14.54,14.06,20.5,7,7,16.51,2.3,24.2,6.88,7.87,4.7,13,13.86,21.64,17.14,8,3,15.86-.93,20.35-9C365.92,152.1,366.65,140.1,365.82,130.22Z" transform="translate(52.82 35.36)"/><path class="cls-9" d="M354.16,168.18c-7.35.45-14.34-3.67-19.8-9.14-5.93-5.93-11.36-12.23-19.44-13.42-5.77-.84-14.31,2.18-18.13-4.38-1.88-3.23-3-7-4.89-10.21a25.8,25.8,0,0,0-7.59-8.29c-6-4-13.66-5.29-20.22-2.59-14.47,5.94-18.1,25.67-30.18,35.14-5.52,4.33-12.61,6.17-18.57,1.85-2.79-2-4-5-4.75-8.67-1-4.9-1.66-9.84-4.11-14.12a5.14,5.14,0,0,0-2.61-2.37,15.14,15.14,0,0,1,2.53,5.24A24,24,0,0,0,208,159.76a20.05,20.05,0,0,0,21.78,8.66c8-2,14.26-8.57,18.72-16.33,4.15-7.22,6.89-15.75,12-22.2,5.33-6.78,13.23-9,20.42-4.79,7.41,4.35,8.13,14.54,14.06,20.5,7,7,16.51,2.3,24.2,6.88,7.87,4.7,13,13.86,21.64,17.14a14.71,14.71,0,0,0,13.5-1.46Z" transform="translate(52.82 35.36)"/><path class="cls-12" d="M235,110.05c0,1.62-2.4,2.94-5.35,2.94s-5.35-1.32-5.35-2.94,2.39-3,5.35-3S235,108.42,235,110.05Z" transform="translate(52.82 35.36)"/><path class="cls-12" d="M240.22,99.38c0,1-1.43,1.76-3.2,1.76s-3.2-.78-3.2-1.76,1.43-1.75,3.2-1.75S240.22,98.41,240.22,99.38Z" transform="translate(52.82 35.36)"/><ellipse class="cls-12" cx="274.46" cy="136.83" rx="2.61" ry="1.43"/><path class="cls-12" d="M317.09,119.2c0,.79-1.17,1.43-2.61,1.43s-2.6-.64-2.6-1.43,1.17-1.43,2.6-1.43S317.09,118.41,317.09,119.2Z" transform="translate(52.82 35.36)"/><path class="cls-12" d="M324.59,110.66c0,1-1.43,1.76-3.2,1.76s-3.2-.79-3.2-1.76,1.43-1.76,3.2-1.76S324.59,109.69,324.59,110.66Z" transform="translate(52.82 35.36)"/><path class="cls-12" d="M324.4,129.66c0,1.62-2.4,2.94-5.35,2.94s-5.36-1.32-5.36-2.94,2.4-2.94,5.36-2.94S324.4,128,324.4,129.66Z" transform="translate(52.82 35.36)"/><path class="cls-15" d="M2.82,56.81c-9.19,7.79-16.12,20-16.48,33.28s7,27,18,30.23c7,2.05,14.8,0,21.2,3.89,9.25,5.62,10.7,20,15,31.16C45,167.11,53.72,176.51,64.1,180.69a35.37,35.37,0,0,0,31.92-3c7-4.37,13-11.22,20.73-13.46,9.6-2.78,19.4,2.2,28.9,5.41s21.27,3.95,27.74-4.81c6-8.16,4.84-21.36,11.06-29.3,6.37-8.14,17.26-7.23,26.48-9.54,11.29-2.84,21.38-11.66,26.91-23.53a55.27,55.27,0,0,0,2.32-39.23L85.46,22.59Z" transform="translate(52.82 35.36)"/><path class="cls-16" d="M73.8,8.14C69.59,24.5,76.08,43.76,88.69,52.35c6.48,4.4,14.27,6.24,19.89,12,6.71,6.93,9,18.08,14.64,26.16,6.77,9.61,18.56,13.91,28.79,10.52,15.06-5,24.45-24,39.56-28.8,18.56-5.86,38.33,11.89,56.76,5.46,12-4.17,20-18,22.69-32.27s.79-29.16-1.31-43.58Z" transform="translate(52.82 35.36)"/><path class="cls-9" d="M214.65,62.18c-22.82-.26-39.42,20.82-60.13,27.31-11.39,3.57-23.56-.06-31.76-11a5.4,5.4,0,0,0-6.57-1.6c2.15,4.72,4.15,9.61,7,13.7,6.77,9.61,18.56,13.91,28.79,10.52,15.06-5,24.45-24,39.56-28.8,18.56-5.86,38.33,11.89,56.76,5.46a24.9,24.9,0,0,0,6.48-3.43C241.28,70.72,228.83,62.35,214.65,62.18Z" transform="translate(52.82 35.36)"/><path class="cls-17" d="M210.08-19.13a95.85,95.85,0,0,1-28.29,34.32,80.09,80.09,0,0,1-27.45,13.47,286,286,0,0,0,12.83-42.43l-4.76-1.69A261.29,261.29,0,0,1,117.9,70.88Q126.82,28.43,135.59-14l-19.28-6.24c-11,41.3-21.92,82.58-33.12,123.72l-4.41,16.14A290,290,0,0,1,54.5,38.31l-4,.47a310.44,310.44,0,0,0,4.31,43.58,55.81,55.81,0,0,1-17-22.17l-3.68,1.74c3.84,14.18,12.18,27,23.54,35.31A303.21,303.21,0,0,0,72.05,144q-11.46,41.31-23.4,82.34-4.45,15.28-9,30.51l-4.58,15.22c-1.55,5-3.08,10.1-4.64,15.11-6.25,20-12.73,39.76-20,58.73A470.47,470.47,0,0,1-14,400a274.84,274.84,0,0,1-31.14,46.09L-10,484.59a337.3,337.3,0,0,0,34.44-58.1,532.33,532.33,0,0,0,24-62.38c6.72-21.06,12.36-42.21,17.65-63.22,1.33-5.26,2.6-10.5,3.89-15.74l3.79-15.69q2.9-12.13,5.75-24.29C95.58,229.65,107.28,202,107.28,202l-2.59-9.75c-4.32,8.08-11.35,14.47-17.28,18.84q11.25-49.41,21.77-98.94c.67-3.13,1.33-6.27,2-9.4a265.81,265.81,0,0,0,38.26-62.2,87.7,87.7,0,0,0,36-19.1,104.77,104.77,0,0,0,27.75-38.59Z" transform="translate(52.82 35.36)"/><path class="cls-13" d="M213.19-17.19l-3.11-1.94a95.85,95.85,0,0,1-28.29,34.32,80.09,80.09,0,0,1-27.45,13.47,286,286,0,0,0,12.83-42.43l-4.76-1.69A265.84,265.84,0,0,1,132.22,50.7a20.78,20.78,0,0,1,5.47-1.8,19.09,19.09,0,0,1,7.71.3q2.08-4.32,4-8.7a87.7,87.7,0,0,0,36-19.1A104.77,104.77,0,0,0,213.19-17.19Z" transform="translate(52.82 35.36)"/><path class="cls-13" d="M50.51,38.78a310.44,310.44,0,0,0,4.31,43.58,55.81,55.81,0,0,1-17-22.17l-3.68,1.74A65.51,65.51,0,0,0,55.7,95.68c.52-1.33,1.08-2.64,1.7-3.92a35,35,0,0,1,6.89-9.85,294.92,294.92,0,0,1-9.79-43.6Z" transform="translate(52.82 35.36)"/><path class="cls-13" d="M120.29,59.43Q128,22.7,135.59-14l-19.28-6.24Q103.68,27.31,90.94,74.8a48.13,48.13,0,0,0,22.23-9.37C115.6,63.59,117.94,61.5,120.29,59.43Z" transform="translate(52.82 35.36)"/><path class="cls-18" d="M-46.31,58.71c.62,9,2.3,18.29,7,25.5s13,11.78,20.32,9C-12.89,91-8.59,84.31-2.62,81.53c7.22-3.37,15.3-.53,22.9,1.37s16.63,2.34,22-4.27c4.68-5.8,4.87-15.19,9.62-20.91,4.4-5.3,11.53-5.95,17.75-4.67s12.21,4.12,18.52,4.57c8.62.61,17.4-3.6,23.19-11.11s8.45-18.17,7.05-28.15L32-35.36Z" transform="translate(52.82 35.36)"/><path class="cls-19" d="M-12.29-9.91C-11.1,4.46,1,14.66,13.16,17.19s24.52-.61,36.77-2.11,25.59-1,35.53,7.51c6,5.14,10.61,13.08,17.79,15.35,6.58,2.07,13.59-1.34,19-6.13s10-11,15.46-15.67c12-10.21,28.54-12.46,42.18-5.72,11.64,5.76,20.52,17.14,31.2,25s25.7,11.77,35.34,2.2c6.31-6.26,9.2-17.24,16.88-20.82,6.78-3.16,14.59.85,21.69-1.11,6-1.66,10.72-7.51,13.33-14.1s3.46-13.9,4.28-21.09Z" transform="translate(52.82 35.36)"/><path class="cls-9" d="M137.75,16.14c12-10.21,28.54-12.46,42.18-5.72,10.23,5.06,18.32,14.45,27.38,22C201,21.2,191.87,12.53,180.74,8A45.27,45.27,0,0,0,156,5.5c-8.14,1.38-15.55,5.48-22.77,9.93-6.66,4.09-13.44,8.6-21,9.71A17.62,17.62,0,0,1,102.48,24c-3.14-1.41-5.57-4.23-8.13-6.67C87.81,11.1,80.63,8,72.13,8.14c-7.78.16-15.33,2.55-23,3.79A80.12,80.12,0,0,1-2.94,2.19,5.72,5.72,0,0,0-8.47,2,33.69,33.69,0,0,0,13.16,17.19c12.13,2.53,24.52-.61,36.77-2.11s25.59-1,35.53,7.51c6,5.14,10.61,13.08,17.79,15.35,6.58,2.07,13.59-1.34,19-6.13S132.24,20.84,137.75,16.14Z" transform="translate(52.82 35.36)"/><path class="cls-9" d="M69.61,53.05c6.22,1.28,12.21,4.12,18.52,4.57,8.62.61,17.4-3.6,23.19-11.11a34.39,34.39,0,0,0,3.22-5.13c-8.23,8.24-19.28,12.3-30.08,10.84-6.81-.93-13.19-4.31-20-5.25-5.59-.78-11.69.32-16.29,4.33-4.43,3.86-6.25,9.64-7.87,15.59-1.35,4.93-2.68,10-7.76,10.48C26.21,78,20.18,74,13.8,74.32A27.61,27.61,0,0,0-2.68,81.56l.06,0c7.22-3.37,15.3-.53,22.9,1.37s16.63,2.34,22-4.27c4.68-5.8,4.87-15.19,9.62-20.91C56.26,52.42,63.39,51.77,69.61,53.05Z" transform="translate(52.82 35.36)"/><g class="cls-20"><path class="cls-21" d="M236.17,22.59c0,1.86-2.9,3.38-6.47,3.38s-6.46-1.52-6.46-3.38,2.89-3.39,6.46-3.39S236.17,20.72,236.17,22.59Z" transform="translate(52.82 35.36)"/><path class="cls-21" d="M115.2,1.35c0,1.87-2.9,3.38-6.47,3.38s-6.46-1.51-6.46-3.38S105.16-2,108.73-2,115.2-.52,115.2,1.35Z" transform="translate(52.82 35.36)"/><ellipse class="cls-21" cx="288.41" cy="47.4" rx="2.92" ry="1.53"/><ellipse class="cls-21" cx="150.51" cy="42.08" rx="2.92" ry="1.53"/><path class="cls-21" d="M225.39,10c0,1.11-1.71,2-3.81,2s-3.82-.89-3.82-2,1.71-2,3.82-2S225.39,8.94,225.39,10Z" transform="translate(52.82 35.36)"/><path class="cls-21" d="M129,6.73c0,1.1-1.7,2-3.81,2s-3.82-.89-3.82-2,1.71-2,3.82-2S129,5.62,129,6.73Z" transform="translate(52.82 35.36)"/></g><g class="cls-20"><path class="cls-21" d="M57.54,40c0,.93-1.45,1.69-3.23,1.69s-3.23-.76-3.23-1.69,1.44-1.69,3.23-1.69S57.54,39.06,57.54,40Z" transform="translate(52.82 35.36)"/><path class="cls-21" d="M51.08,30.64c0,.94-1.45,1.69-3.24,1.69s-3.23-.75-3.23-1.69S46.06,29,47.84,29,51.08,29.71,51.08,30.64Z" transform="translate(52.82 35.36)"/><path class="cls-21" d="M67.24,27.26c0,1.87-2.89,3.38-6.47,3.38s-6.46-1.51-6.46-3.38,2.89-3.38,6.46-3.38S67.24,25.4,67.24,27.26Z" transform="translate(52.82 35.36)"/></g><g class="cls-20"><path class="cls-21" d="M249.17,51.71c0,.93-1.45,1.69-3.24,1.69s-3.23-.76-3.23-1.69S244.15,50,245.93,50,249.17,50.77,249.17,51.71Z" transform="translate(52.82 35.36)"/><path class="cls-21" d="M181.81,47c0,.94-1.45,1.7-3.24,1.7s-3.23-.76-3.23-1.7,1.45-1.69,3.23-1.69S181.81,46,181.81,47Z" transform="translate(52.82 35.36)"/><path class="cls-21" d="M194.14,54.49c0,1.45-2.25,2.63-5,2.63s-5-1.18-5-2.63,2.25-2.63,5-2.63S194.14,53,194.14,54.49Z" transform="translate(52.82 35.36)"/></g><g class="cls-20"><path class="cls-21" d="M135.48,124.22c0,1.86-2.89,3.38-6.47,3.38s-6.46-1.52-6.46-3.38,2.89-3.39,6.46-3.39S135.48,122.35,135.48,124.22Z" transform="translate(52.82 35.36)"/><path class="cls-21" d="M201.71,96.66c0,1.32-2.06,2.4-4.59,2.4s-4.6-1.08-4.6-2.4,2.06-2.41,4.6-2.41S201.71,95.33,201.71,96.66Z" transform="translate(52.82 35.36)"/><ellipse class="cls-21" cx="190.01" cy="168.79" rx="3.67" ry="1.92"/><ellipse class="cls-21" cx="173.46" cy="166.87" rx="1.91" ry="1"/><path class="cls-21" d="M191,103.88c0,.55-.85,1-1.9,1s-1.91-.44-1.91-1,.85-1,1.91-1S191,103.32,191,103.88Z" transform="translate(52.82 35.36)"/></g><path class="cls-22" d="M325,268c0-.06,0-.11,0-.17a75.94,75.94,0,0,0-3.54-10.68c-4.11-4.69-11-1.75-15.09-6.77-.41-.51.31-1.19.72-.69,3.49,4.33,9.31,2.6,13.5,5.38-2-4.63-4.33-9.1-6.64-13.58a.48.48,0,1,1,.84-.45c1.43,2.76,2.85,5.52,4.21,8.31a7.87,7.87,0,0,1,1.53-4,14.58,14.58,0,0,0,3.36-9.43c0-.69.91-.58.92.11a14.62,14.62,0,0,1-1.93,7.73c-.71,1.18-1.76,2.11-2.37,3.36a7.37,7.37,0,0,0-.55,4,.48.48,0,0,1,0,.24c.81,1.71,1.57,3.43,2.3,5.19a.51.51,0,0,1,.07.17c1,2.42,1.88,4.89,2.65,7.44a19.68,19.68,0,0,1,3.63-10c.38-.52,1.14.11.74.64a18.94,18.94,0,0,0-3.43,12.81q.22.92.42,1.86a56.11,56.11,0,0,1,1.19,9.11,22.29,22.29,0,0,1,4.67-7.72c.44-.48,1,.37.59.84a20.82,20.82,0,0,0-5.19,10.18c0,1.05,0,2.09-.11,3.14-.37,5.8-1.23,11.77.92,17.26.25.63-.6,1.08-.84.45-1.83-4.67-1.61-9.76-1.23-14.75.06-.78.12-1.57.16-2.34a.6.6,0,0,1-.06-.19c-.56-3.9-3.84-5.42-6.69-6.53-.56-.22-.22-1.23.34-1,2.47,1,5.11,2.28,6.46,4.84a.45.45,0,0,1,0-.2c0-.14,0-.28.07-.41a56.22,56.22,0,0,0-.84-10.72.41.41,0,0,1-.16-.16A9.37,9.37,0,0,0,314.17,267c-.56.21-.95-.78-.38-1a10.25,10.25,0,0,1,11.53,3c-.06-.26-.12-.52-.19-.78A.61.61,0,0,1,325,268Z" transform="translate(52.82 35.36)"/><path class="cls-23" d="M311.42,276.69c2.75,4.78,7.85,6.45,12.34,4.14a.47.47,0,0,0,.26-.35.53.53,0,0,0,.25-.55c-.31-2.62-1-5.31-3.42-6-3.17-.91-5.93,1.83-9,1.91A.56.56,0,0,0,311.42,276.69Z" transform="translate(52.82 35.36)"/><path class="cls-23" d="M304,230.33c0,3.94.78,8.15,3.24,11,2.16,2.54,5.31,3.64,8.23,2.49a.38.38,0,0,0,.29-.16.45.45,0,0,0,.11-.37A12.36,12.36,0,0,0,314,233.7c-2.32-3-6.2-4.09-9.55-3.88l-.11,0A.44.44,0,0,0,304,230.33Z" transform="translate(52.82 35.36)"/><path class="cls-23" d="M295.24,248.81c2.27,2.67,4.82,5.59,8,6.59,2.81.88,5.59-.4,7.67-2.64a.47.47,0,0,0,.09-.12.52.52,0,0,0,.08-.24,5.84,5.84,0,0,0-4.32-6.43c-3.73-.91-7.28,1.52-10.92,2l-.1,0A.51.51,0,0,0,295.24,248.81Z" transform="translate(52.82 35.36)"/><path class="cls-23" d="M323.87,240.65a.34.34,0,0,0,.16,0,.38.38,0,0,0,.24,0,6.76,6.76,0,0,0,4.28-2.16,8,8,0,0,0,1.45-5,38,38,0,0,0-.7-5.32,20.17,20.17,0,0,0-1.37-5.08.44.44,0,0,0-.85,0c-1.56,3.43-4.7,5.68-6.07,9.21A6.63,6.63,0,0,0,323.87,240.65Z" transform="translate(52.82 35.36)"/><path class="cls-23" d="M329.8,274.22a.42.42,0,0,0,.31.31.87.87,0,0,0,.11.18c1.86,2,4.51,1.14,6.06-.89,2.3-3,2.26-7.6,5-10.23a.55.55,0,0,0-.37-.95c-3.19.36-6.64.81-9.16,3.37A8.06,8.06,0,0,0,329.8,274.22Z" transform="translate(52.82 35.36)"/><path class="cls-23" d="M325.09,256.68a9.59,9.59,0,0,1,2-7.66c2.9-3.64,7.27-4.67,11-6.79.46-.26.77.39.57.82-1.9,4-2,8.77-4.19,12.58-1.62,2.86-4.51,4.67-7.4,3.5l-.06,0A3.37,3.37,0,0,1,325.09,256.68Z" transform="translate(52.82 35.36)"/><path class="cls-23" d="M299.91,267.34a.3.3,0,0,1,.26-.16c3.8-1.9,7-5.78,11.3-6.23a6.07,6.07,0,0,1,6.65,4.89,5.42,5.42,0,0,1-.54,2.15c-3.44,6.86-12.7,3.34-17.53.26a.39.39,0,0,1-.1-.08A.6.6,0,0,1,299.91,267.34Z" transform="translate(52.82 35.36)"/><path class="cls-24" d="M323.48,240.42c.26-2,1.35-3.58,2.06-5.37a17,17,0,0,0,1.14-6.77c0-.23.29-.29.3-.06a17.45,17.45,0,0,1-.83,6.07c-.7,2.15-2.12,4-2.39,6.3Z" transform="translate(52.82 35.36)"/><path class="cls-24" d="M308.23,234a21.15,21.15,0,0,0,4.2,6.15,25.53,25.53,0,0,0,2.46,2.1,4.16,4.16,0,0,1,.95,1s0,.06,0,.08a.43.43,0,0,1-.1.35,6.37,6.37,0,0,0-2-1.87,18.87,18.87,0,0,1-2.24-2.15,22.08,22.08,0,0,1-3.53-5.48C307.86,234,308.14,233.82,308.23,234Z" transform="translate(52.82 35.36)"/><path class="cls-24" d="M299.51,249.57a21.58,21.58,0,0,0,6.21,2.09c1.78.29,3.64.17,5.38.72v0a.52.52,0,0,1-.08.24l0,.07c-1.89-.6-3.93-.42-5.86-.8a21.69,21.69,0,0,1-5.71-2C299.22,249.81,299.33,249.48,299.51,249.57Z" transform="translate(52.82 35.36)"/><path class="cls-24" d="M311.19,266.21c-1.24.33-2.46.75-3.69,1.11a4.78,4.78,0,0,1-3.29.07c-.19-.08-.08-.42.11-.34,1.4.59,2.84,0,4.21-.42s2.46-.78,3.71-1.05a12.83,12.83,0,0,1,5.78-.09c0,.12.07.23.1.35v.05A13.36,13.36,0,0,0,311.19,266.21Z" transform="translate(52.82 35.36)"/><path class="cls-24" d="M314,276.83c3.19,1.3,7.51.59,10.23,3.2a.48.48,0,0,1-.13.34c-2.67-2.66-7-1.9-10.22-3.21C313.74,277.09,313.85,276.75,314,276.83Z" transform="translate(52.82 35.36)"/><path class="cls-24" d="M337.28,265.09c.16-.13.36.15.19.28a30,30,0,0,0-7.32,9.24.59.59,0,0,1,0-.08.34.34,0,0,1-.21-.13A30.19,30.19,0,0,1,337.28,265.09Z" transform="translate(52.82 35.36)"/><path class="cls-24" d="M335.29,246c.16-.15.35.13.2.28a35.11,35.11,0,0,0-8.49,12.9l-.05,0a1.43,1.43,0,0,1-.23-.11A35.42,35.42,0,0,1,335.29,246Z" transform="translate(52.82 35.36)"/><path class="cls-25" d="M310.53,313.51c3.22-4.4,9-4.29,13.89-3.2s10.1,2.71,14.58.23c9.36-5.17,7.8-23.34,16.63-29.66,5.62-4,13.1-1.46,19.22-4.28,4.85-2.25,8.46-7.72,13.58-8.9,5.54-1.27,11,3,14.3,8.39s5,11.8,7.7,17.61,6.79,11.35,12.33,12.57c7.3,1.61,15.78-4.49,21.77.65,6.64,5.7,3.86,20.45,11.2,24.82,4.67,2.78,10.28-.81,15.51-.23,5.63.64,10.13,6.23,12.07,12.45s1.83,13,1.69,19.65H305.36Z" transform="translate(52.82 35.36)"/><path class="cls-26" d="M294.3,303.9c5-6.76,10.21-13.77,17.29-17s16.54-1.27,20,6.64c2.27,5.14,2.08,12.35,6.36,15.23,6.1,4.1,13-5.44,20-4.82,9.41.83,11.77,18.11,20.92,20.85,8.83,2.64,18.05-10.14,26.15-5.24,5.45,3.3,6,12.29,10,17.65,3.4,4.45,8.82,5.84,13.91,6.34s10.35.39,15,2.79,8.56,8.31,7.25,14.08l-157,.8Z" transform="translate(52.82 35.36)"/><path class="cls-23" d="M-52.82,434.84s147.64-84.57,622.91-82L559.31,515.62-52.82,530.77Z" transform="translate(52.82 35.36)"/><path class="cls-27" d="M130.6,186.38S57.58,337.07,28.77,355.1l37.5,2.31,74-74.88Z" transform="translate(52.82 35.36)"/><path class="cls-28" d="M207.27,353.16v59.26H307.41s12.23-47.15,15.79-50.85Z" transform="translate(52.82 35.36)"/><path class="cls-29" d="M130.6,186.38S91.13,306.56,47.72,349.09v63.33H207.27l25.55-91.06Z" transform="translate(52.82 35.36)"/><path class="cls-30" d="M130.6,186.38l131.82,39.75S324.78,358.34,359.51,375H230.84S150.33,317.66,130.6,186.38Z" transform="translate(52.82 35.36)"/><polygon class="cls-31" points="183.42 221.73 155.4 415.78 154.12 447.78 204.21 447.78 199.82 397.02 192.02 307.25 183.42 221.73"/><path class="cls-32" d="M130.6,186.38s-1.1,109.2-11.34,166.78a266,266,0,0,1-18,59.26S85.76,375.59,63,378.17C63,378.17,101.3,333.46,130.6,186.38Z" transform="translate(52.82 35.36)"/><path class="cls-33" d="M130.6,186.38s7.33,178,20.79,226c0,0,18.12-24,34.05-29.63C185.44,382.79,153,334.42,130.6,186.38Z" transform="translate(52.82 35.36)"/><path class="cls-34" d="M20.68,321.16a.83.83,0,0,0-1.48.73,180.84,180.84,0,0,1,6.55,32.74c.12,1.16,1.64,1.21,1.62.12a1,1,0,0,0,.3-.68A59.59,59.59,0,0,0,20.68,321.16Z" transform="translate(52.82 35.36)"/><path class="cls-35" d="M17.48,360.74l-.14-.15a.94.94,0,0,0,.15-1.13c-5-9.89-14.46-13.55-23.35-16.63-.86-.3-1.48,1.3-.63,1.73a75.4,75.4,0,0,1,22.83,17.52C17.09,362.93,18.23,361.59,17.48,360.74Z" transform="translate(52.82 35.36)"/><path class="cls-36" d="M22.42,330.58c-6.37,10.11-5.71,22.93-4.82,34.79.09,1.21,1.71,1.22,1.62,0v-.13a1,1,0,0,0,.23-.62,192.38,192.38,0,0,1,4.46-33.31C24.14,330.21,22.94,329.75,22.42,330.58Z" transform="translate(52.82 35.36)"/><path class="cls-37" d="M22.49,411.38A171.83,171.83,0,0,0,6.07,325.87c-.69-1.41-2.55-.14-1.86,1.27a169,169,0,0,1,16.12,84.24c-.1,1.62,2.05,1.61,2.16,0Z" transform="translate(52.82 35.36)"/><path class="cls-38" d="M23.16,410.52a366,366,0,0,1,5.52-62C31.61,332,34.87,312.45,47,301.47c1.09-1-.44-2.77-1.53-1.78-12.12,11-15.61,30.34-18.61,47A370.37,370.37,0,0,0,21,410.52a1.09,1.09,0,1,0,2.16,0Z" transform="translate(52.82 35.36)"/><path class="cls-39" d="M39.83,315.06c1.79-7,6.24-12.78,12.11-15.36,3.86-1.69,2.18-9-1.72-7.3-8,3.53-14.15,11-16.62,20.64-1.2,4.68,5,6.68,6.23,2Z" transform="translate(52.82 35.36)"/><path class="cls-39" d="M11.89,332.42A66.79,66.79,0,0,0,.33,310.77c-2.87-3.54-7.44,1.82-4.57,5.36a56.84,56.84,0,0,1,9.9,18.31,3.29,3.29,0,1,0,6.23-2Z" transform="translate(52.82 35.36)"/><path class="cls-40" d="M80.77,364.87a.87.87,0,0,1,.07-.17A75.09,75.09,0,0,1,88.39,355c6-3,12.41,3.48,18.51.08.62-.34.09-1.42-.52-1.08-5.26,2.93-10.87-1.73-16.32-.79,3.78-4,7.83-7.63,11.88-11.3.54-.49-.21-1.37-.74-.89-2.5,2.27-5,4.53-7.43,6.85a9.54,9.54,0,0,0-.21-5.05c-1.23-4-1.68-7.65-.26-11.7a.54.54,0,1,0-1-.33,17.29,17.29,0,0,0-.65,9.19c.33,1.61,1.12,3.11,1.34,4.74a8.41,8.41,0,0,1-.84,4.57.7.7,0,0,0-.08.26c-1.46,1.44-2.89,2.91-4.28,4.43a.48.48,0,0,0-.13.16,77.1,77.1,0,0,0-5.46,6.66,24,24,0,0,0-.34-12.47.54.54,0,1,0-1,.32A22.47,22.47,0,0,1,80,364c-.38.59-.75,1.18-1.12,1.79a59.77,59.77,0,0,0-4.48,9.16,28.93,28.93,0,0,0-2.26-10.52c-.3-.72-1.22-.1-.92.62a26.32,26.32,0,0,1,1.94,13.39c-.36,1.12-.7,2.25-1,3.41-1.65,6.37-2.84,13.17-7.07,18-.49.56.25,1.44.74.89,3.6-4.1,5.16-9.65,6.51-15.17q.31-1.29.66-2.58a.59.59,0,0,0,.13-.17c2-3.89,6-3.93,9.45-3.74.68,0,.68-1.2,0-1.24-3-.17-6.27,0-8.61,2.05a.63.63,0,0,0,.07-.22c0-.16,0-.31.07-.47a58.65,58.65,0,0,1,4.68-11A.38.38,0,0,0,79,368c4.18-3.38,9.87-2.58,13.75,1.06.53.49,1.29-.37.76-.87-3.75-3.52-9-4.71-13.39-2.36l.48-.75A.65.65,0,0,0,80.77,364.87Z" transform="translate(52.82 35.36)"/><path class="cls-41" d="M92.12,379.63c-3.27-1.58-5.26-5.85-9-6.4-2.88-.43-4.53,2.13-5.78,4.78a.66.66,0,0,0,.08.72.59.59,0,0,0,.15.49c4,4.64,10,5.32,14.64,1.55A.68.68,0,0,0,92.12,379.63Z" transform="translate(52.82 35.36)"/><path class="cls-42" d="M116.36,334.15a.41.41,0,0,0-.11-.07c-3.5-1.85-8-2.61-11.58-.48-3,1.8-4.89,5.57-5.35,9.39a.54.54,0,0,0,0,.45.51.51,0,0,0,.26.31,8.13,8.13,0,0,0,9.67,1.33c3.64-1.88,6-6,7.35-10.22A.57.57,0,0,0,116.36,334.15Z" transform="translate(52.82 35.36)"/><path class="cls-43" d="M119.1,357.69l-.09-.07c-3.73-2.27-6.66-6.59-11-7.42a5.82,5.82,0,0,0-6.89,4.77.76.76,0,0,0,0,.3.61.61,0,0,0,0,.18c1.43,3.39,4,6.1,7.27,6.53,3.76.48,7.53-1.41,10.89-3.16C119.9,358.55,119.59,357.73,119.1,357.69Z" transform="translate(52.82 35.36)"/><path class="cls-44" d="M97.64,328.8c-.22-4.43-2.78-8.35-3.23-12.77-.06-.54-.54-.81-.91-.44a20.22,20.22,0,0,0-3.25,4.76,37.39,37.39,0,0,0-2.63,5.35,9.47,9.47,0,0,0-.22,6c.69,2.06,2.26,3.27,3.81,4.38a.48.48,0,0,0,.26.09.64.64,0,0,0,.2,0C95.07,336.06,97.84,332.91,97.64,328.8Z" transform="translate(52.82 35.36)"/><path class="cls-45" d="M74.32,359.53c-1.79-4-5.32-6.11-8.6-8-.46-.27-1,.28-.73.85,2,4.13.31,9,1.71,13.34.94,2.91,3.46,5.13,6.16,3.88a.59.59,0,0,0,.18-.13.44.44,0,0,0,.44-.18A9.45,9.45,0,0,0,74.32,359.53Z" transform="translate(52.82 35.36)"/><path class="cls-46" d="M84.7,352.77a11.3,11.3,0,0,0,.59-9.14c-1.81-5.29-6.12-8.51-9.31-12.55-.4-.51-1,0-.89.59.63,5.15-.93,10.35,0,15.48.72,3.82,3.16,7.17,6.66,7.31a.21.21,0,0,0,.08,0A3.34,3.34,0,0,0,84.7,352.77Z" transform="translate(52.82 35.36)"/><path class="cls-47" d="M107.84,376.35a.41.41,0,0,0-.22-.29c-3.39-3.87-5.47-9.58-9.87-12.13-3-1.73-6.8-1.32-8.83,2a6.18,6.18,0,0,0-.19,2.55c1.26,9,12.4,9.73,18.64,8.77a.37.37,0,0,0,.14,0A.65.65,0,0,0,107.84,376.35Z" transform="translate(52.82 35.36)"/><path class="cls-24" d="M92.17,336.19c.42-2.27-.19-4.48-.31-6.75A19.44,19.44,0,0,1,93,321.67c.09-.24-.21-.46-.3-.21a20,20,0,0,0-1.26,6.88c0,2.63.87,5.28.33,7.89Z" transform="translate(52.82 35.36)"/><path class="cls-24" d="M110.71,336.73a20.36,20.36,0,0,1-6.65,4.54,27.33,27.33,0,0,1-3.37,1.05,4,4,0,0,0-1.36.58s0,.06,0,.09a.58.58,0,0,0,0,.43,6.23,6.23,0,0,1,2.8-1,19.17,19.17,0,0,0,3.15-1.22A20.93,20.93,0,0,0,111,337C111.13,336.85,110.88,336.56,110.71,336.73Z" transform="translate(52.82 35.36)"/><path class="cls-24" d="M114.54,357.56a23.26,23.26,0,0,1-7.37-.77c-2-.55-3.94-1.58-6-1.84v0a.76.76,0,0,0,0,.3l0,.1c2.23.28,4.35,1.46,6.54,2a24,24,0,0,0,6.81.62C114.76,358,114.76,357.55,114.54,357.56Z" transform="translate(52.82 35.36)"/><path class="cls-24" d="M96.19,369.68c1.21,1,2.36,2,3.55,3a5.87,5.87,0,0,0,3.49,1.67c.23,0,.23-.41,0-.42-1.7-.05-3-1.37-4.35-2.49s-2.35-2-3.59-2.92a15.69,15.69,0,0,0-6.15-2.89c-.07.11-.15.21-.22.33a.12.12,0,0,0,0,.05A16.81,16.81,0,0,1,96.19,369.68Z" transform="translate(52.82 35.36)"/><path class="cls-24" d="M89.4,379.65c-3.87-.15-8.24-3-12.06-1.54a.66.66,0,0,0,0,.44c3.8-1.55,8.2,1.37,12.05,1.52C89.63,380.07,89.63,379.66,89.4,379.65Z" transform="translate(52.82 35.36)"/><path class="cls-24" d="M68.71,355.86c-.12-.22-.43,0-.31.2A39.81,39.81,0,0,1,73,369.48l.07-.06a.43.43,0,0,0,.27,0A39.81,39.81,0,0,0,68.71,355.86Z" transform="translate(52.82 35.36)"/><path class="cls-24" d="M77.59,336.37c-.11-.23-.42,0-.3.21a45.35,45.35,0,0,1,4.5,17.88h.07a1.6,1.6,0,0,0,.29,0A46,46,0,0,0,77.59,336.37Z" transform="translate(52.82 35.36)"/><path class="cls-48" d="M128.64,432.94c-.55-.41-1.12-.78-1.69-1.13a22.2,22.2,0,0,0-13.77-3.08h-.05C100.74,430,88.71,446.83,85.65,422,82.93,399.85,69.77,388.52,67,386.33l-.53-.4c-6.36-4.54-15-5.9-21.1-.85C41,388.69,38.17,395.23,33,396.59c-3.67,1-7.53-1-11.21-.16-5.84,1.36-8.79,9-10,15.82s-2,14.44-6.4,19.09c-5.76,6.05-14.74,4.07-22.15,6.7-8.62,3.07-14.73,12.57-17.1,22.75s-1.54,21,0,31.38l191.89-4.43C143.55,473.75,144.52,444.49,128.64,432.94Z" transform="translate(52.82 35.36)"/><path class="cls-49" d="M15.55,434.88c4.91-3.53,7.38-8.85,8.58-12.54q-.39-1.3-.81-2.58c-2-6-4.24-12-6.66-17.8-2.82,9.13-8.39,10.56-8.39,10.56,4.23-3.27,6.17-9.28,7.06-13.72q-1.24-2.93-2.53-5.8c-1.56-3.46-3.18-6.91-4.9-10.28a52.18,52.18,0,0,1-5.13,8.15c2.19-3,2.9-7.91,3.05-12.09C4,375.39,2,372.09-.14,369c-4.76-7-10.67-13.19-18.16-15.72l-.1,0a.77.77,0,0,0-1.05.41c-3.61,6.37-4.47,13.61-4,21a11,11,0,0,0,6,3.07,15.48,15.48,0,0,1-5.67.44c.93,7.86,3.16,15.74,5,22.76q3.42,12.92,7.84,25.43a21.42,21.42,0,0,0,11.9,3.44,34.92,34.92,0,0,1-10,1.92A135.06,135.06,0,0,0,0,451.09c4.15,7.53,10.22,12.39,17.71,14.22a.74.74,0,0,0,.86-.36c5.25-4.42,7.63-12.08,8.36-19.35a54.23,54.23,0,0,0-1.11-16.84A23.53,23.53,0,0,1,15.55,434.88Z" transform="translate(52.82 35.36)"/><path class="cls-50" d="M24.13,422.34c0-.11-.07-.21-.1-.32a31,31,0,0,1-5.73,10.46A26.76,26.76,0,0,0,24.13,422.34Z" transform="translate(52.82 35.36)"/><path class="cls-50" d="M16.37,461.5c-.11-.39-.21-.79-.32-1.18q-1.17-4.19-2.37-8.36a29.19,29.19,0,0,0,13.43-12.47c0-.6,0-1.2-.08-1.81A28.73,28.73,0,0,1,13.39,451q-1.55-5.43-3.14-10.86a26,26,0,0,0,8.16-6.25c-.91.4-1.67.67-2.17.84a24.61,24.61,0,0,1-6.29,4.4q-.78-2.7-1.59-5.4c-.59-2-1.19-4-1.78-6C13,424.51,17.89,418,20,410.36c-.18-.49-.37-1-.56-1.45-1.82,7.82-6.7,14.56-13.14,17.74l0-.1c0-.11-.07-.21-.1-.32q-1-3.41-2.05-6.8h0c-.28-.92-.56-1.85-.85-2.78a20.49,20.49,0,0,0,6.57-4.83,6.71,6.71,0,0,1-1.55.71c4.23-3.27,6.17-9.28,7.06-13.72-.05-.12-.1-.24-.16-.36-1.26,7.7-5.81,14.23-12.22,17.2q-1.55-5-3.1-10h0c4.64-3.59,9.66-7.68,12.68-13.19-.17-.36-.33-.72-.5-1.09C9.17,396.91,4.15,401-.47,404.58q-1.66-5.34-3.37-10.66a19.94,19.94,0,0,0,8.34-6.63,22.32,22.32,0,0,0,.71-2.79,19.73,19.73,0,0,1-9.37,8.42C-5.12,390-6.08,387-7,384c3.57-3,7.36-6.34,9.75-10.66l-.57-.92c-2.26,4.3-6,7.61-9.52,10.55l-1.8-5.43c-.27-.79-.54-1.58-.8-2.37a18,18,0,0,0,7.41-9.63l-.69-.88a17,17,0,0,1-7.06,9.52q-1.42-4.25-2.91-8.47a31.63,31.63,0,0,0,4.73-6.61l-.71-.63a29.13,29.13,0,0,1-4.38,6.19l-2-5.65a9,9,0,0,0,2.18-3.55c-.27-.16-.54-.33-.82-.48A7.84,7.84,0,0,1-16,358q-.82-2.26-1.67-4.54l-.65-.24-.1,0a.74.74,0,0,0-.92.22q1.14,3,2.25,6.1a12.46,12.46,0,0,1-4.37-1.6c-.12.33-.24.66-.35,1a13.23,13.23,0,0,0,5.13,1.73c.67,1.86,1.34,3.71,2,5.58a23,23,0,0,1-8.09-3.72l-.21,1.1a23.74,23.74,0,0,0,8.71,3.8c.92,2.61,1.84,5.23,2.73,7.86a21.56,21.56,0,0,1-12-4.64c0,.41,0,.83,0,1.24a22,22,0,0,0,12,4.45.44.44,0,0,0,.38-.19q1.24,3.66,2.47,7.33a23.89,23.89,0,0,1-13.84-1.82c.06.41.14.82.21,1.23a24.48,24.48,0,0,0,14,1.61h0c1,3.11,2.05,6.24,3.06,9.36a28.67,28.67,0,0,1-15.23-2.57c.1.43.21.86.31,1.28A29.43,29.43,0,0,0-5,394.89q1.71,5.36,3.38,10.72a29.66,29.66,0,0,1-15.72-2l.34,1.24a30.22,30.22,0,0,0,15.7,1.82q1.55,5,3.06,10A42.91,42.91,0,0,1-14,415.18l.38,1.19a43.37,43.37,0,0,0,15.63,1.28c.33,1.08.65,2.15,1,3.22.53,1.77,1.05,3.55,1.58,5.32a32.57,32.57,0,0,1-15-.28c0,.13.09.26.14.4a21.7,21.7,0,0,0,2.05,1.16,33,33,0,0,0,13.1-.27Q6.46,432.45,8,437.7c.09.31.18.63.28.94s.19.68.29,1a43.42,43.42,0,0,1-14-.26c.15.39.31.77.47,1.16a44.11,44.11,0,0,0,13.81.13c.51,1.75,1,3.5,1.52,5.25.17.61.34,1.22.52,1.82.4,1.39.79,2.79,1.19,4.18a.36.36,0,0,0-.14,0,25.2,25.2,0,0,1-11,.83c.25.4.5.79.76,1.17a25.61,25.61,0,0,0,10.31-1,.42.42,0,0,0,.27-.21c.3,1,.59,2.05.88,3.08q1,3.45,1.94,6.91c-1,.19-2.07.33-3.1.42.61.31,1.24.6,1.87.86.49-.07,1-.15,1.45-.24l.06,0,.24.9c.57.19,1.14.36,1.73.51-.12-.44-.23-.88-.35-1.31-.05-.16-.09-.32-.13-.48l-.26-.92a30.89,30.89,0,0,0,7.15-4.75c.33-.72.63-1.46.91-2.22A30.25,30.25,0,0,1,16.37,461.5Z" transform="translate(52.82 35.36)"/><path class="cls-51" d="M45.83,402.89c6.07-1.13,11.27-6.36,14.87-11.14v-.18c.42-11.05.82-22.12.31-33.17q-.27-5.88-.94-11.71a46.33,46.33,0,0,1-7.86.62c2.81-.5,5.29-2.73,7.24-5.19a107,107,0,0,0-4.66-19.23.57.57,0,0,0-.19-.27.35.35,0,0,0-.49,0c-9.73,7.07-15.74,18.26-19.51,30.53,1.21,5.13,3.13,11.12,6.09,15.35a40.93,40.93,0,0,1-8.11-7.79c-.78,3.35-1.42,6.74-2,10.1-1.73,11-2.52,22.24-4,33.31,0,.33-.09.65-.13,1,1.38,3.51,3.62,7.88,6.72,9.85a26.44,26.44,0,0,1-7.85-2.76c-.54,3.05-1.17,6.08-1.93,9.08-1.28,5-3.26,9.84-4.26,15-1.85,9.38,1.81,19.58,9.07,24.23a.57.57,0,0,0,.13.08c7,3.1,14.69-.11,19.89-5.94,6.14-6.87,8.53-17,9.84-26.51S60,408.94,60.4,399.32C53.8,402.73,45.83,402.89,45.83,402.89Z" transform="translate(52.82 35.36)"/><path class="cls-52" d="M38.09,430.54c7.32-1.66,15.18-4.2,20.87-9.85.06-.58.12-1.16.17-1.74-5.54,6.07-13.63,8.68-21,10.37.29-1.18.57-2.38.81-3.59.15-.71.29-1.43.42-2.14,0-.21.07-.42.11-.62.09-.51.19-1,.27-1.54l.12-.68.24-1.5.09-.63.24-1.56c0-.18,0-.36.07-.54.08-.56.16-1.12.23-1.68,0-.11,0-.22.05-.34a33.65,33.65,0,0,0,19.38-9.3c0-.55.05-1.1.08-1.64a33,33,0,0,1-19.31,9.73c0-.23.06-.45.08-.68s0-.2,0-.3c.08-.65.16-1.3.23-2l0-.14c.58-5.19,1-10.41,1.49-15.61a30.43,30.43,0,0,0,18.16-8.46c0-.53,0-1.06.05-1.59a29.9,29.9,0,0,1-18.1,8.85c0-.52.09-1,.14-1.56q.55-6.06,1.3-12.09a20.91,20.91,0,0,0,16.94-6.56c0-.53,0-1.07,0-1.6a20.2,20.2,0,0,1-16.81,7q.84-6.71,1.91-13.37a18.42,18.42,0,0,0,14.8-3.35c0-.47,0-.93,0-1.4A17.62,17.62,0,0,1,46.54,364q.6-3.67,1.27-7.32c.19-1.06.4-2.11.6-3.17a22.66,22.66,0,0,0,12-3.27L60.33,349a21.78,21.78,0,0,1-11.69,3.33q1.13-5.73,2.44-11.41a18.53,18.53,0,0,0,7.35-4.63L58.16,335a17.62,17.62,0,0,1-6.77,4.59q1.78-7.68,3.89-15.25l-.48-1.44a.57.57,0,0,0-.19-.27.36.36,0,0,0-.25-.11q-2.28,8.1-4.2,16.33a35.79,35.79,0,0,1-3.48-9.27c-.27.33-.55.66-.82,1a37.15,37.15,0,0,0,4,9.81q-1.37,5.92-2.53,11.9a26.27,26.27,0,0,1-6.65-13.76c-.26.47-.51,1-.76,1.43A27.23,27.23,0,0,0,47,353.6q-1,5.14-1.84,10.34a38.07,38.07,0,0,1-9.27-14.72c-.19.51-.36,1-.53,1.53A38.91,38.91,0,0,0,45,365.28q-1.07,6.64-1.91,13.34a41.4,41.4,0,0,1-11-15.65c-.13.59-.25,1.19-.37,1.79A41.94,41.94,0,0,0,42.89,380q-.42,3.43-.77,6.87c-.24,2.29-.45,4.59-.66,6.89A42.58,42.58,0,0,1,29.38,380l-.21,1.76A43,43,0,0,0,41.33,395h0c-.38,4.29-.75,8.6-1.2,12.88L40,409.51l0,.36c-.06.49-.11,1-.17,1.46,0,.15,0,.3,0,.44l-.09.69A42.59,42.59,0,0,1,27.26,399l-.21,1.72a43.19,43.19,0,0,0,12.41,13c0,.07,0,.14,0,.22,0,.34-.09.68-.14,1s-.07.58-.11.87-.11.77-.17,1.16l-.12.8c-.06.44-.13.87-.19,1.31,0,.22-.07.44-.11.66-.1.66-.21,1.31-.33,2-.39,2.24-.83,4.46-1.34,6.67A41.2,41.2,0,0,1,24.63,416c-.1.49-.21,1-.31,1.47a42.44,42.44,0,0,0,12.32,12.16,91.46,91.46,0,0,1-2.65,9c-.86,2.4-1.82,4.75-2.85,7.05a52.06,52.06,0,0,1-10.37-15.59c-.16.5-.31,1-.46,1.52a53.26,53.26,0,0,0,10.29,15.1l.06.05c-1,2.27-2.12,4.5-3.22,6.73L25.22,458v0h0c-4.13,8.46-8,17.17-9.11,27a.69.69,0,1,0,1.36.16c1.05-9.48,4.82-17.94,8.82-26.14L28,455.56c1.33-2.68,2.59-5.36,3.79-8.07h0c8.14-.57,17.06-1.94,23.87-7.27.18-.62.35-1.25.52-1.88-6.62,5.84-15.63,7.3-23.87,7.92a109.11,109.11,0,0,0,5.51-15.76A.38.38,0,0,0,38.09,430.54Z" transform="translate(52.82 35.36)"/><path class="cls-53" d="M102.38,464.45a147.35,147.35,0,0,1-11.63-68.76c.17-2.4.82-5.36,2.84-5.82,2.2-.5,3.74,2.45,4.51,4.92A198.38,198.38,0,0,1,107,453.44c1-18.57,2.06-37.28,6.18-55.24,1.56-6.82,3.65-13.68,7.6-19,1.7-2.29,4.56-4.35,6.71-2.66,1.58,1.23,1.81,3.78,1.86,6A225.62,225.62,0,0,1,116,464.59c11.19-27.29,22.48-54.77,37.8-79.16,1.3-2.08,3.57-4.35,5.38-2.9.95.75,1.23,2.21,1.38,3.54,1.65,14.33-3.44,28.6-10,40.87s-14.66,23.41-20.18,36.34c8.91-19.68,25.92-34,44.68-37.72,2.09-.41,4.5-.58,6,1.11s1.56,4.44,1.15,6.82a30.16,30.16,0,0,1-9,16.29C168.92,454,163.84,457,158.81,460l-34.4,20.3Z" transform="translate(52.82 35.36)"/><path class="cls-23" d="M107.37,472.73c-1-7.75-2.38-15.4-3.9-23a14,14,0,0,0,1.66-7.06.47.47,0,1,0-.94,0,13,13,0,0,1-1,5.47c-.93-4.65-1.89-9.29-2.8-13.94a.61.61,0,0,0,.16-.16,16.09,16.09,0,0,0,2.21-5.81c.13-.7-.79-1-.91-.3a15.18,15.18,0,0,1-1.73,4.88c-.84-4.39-1.62-8.79-2.28-13.22l0,0a11.4,11.4,0,0,0,2.54-7.38.48.48,0,1,0-1,0,10.19,10.19,0,0,1-1.84,6,165.16,165.16,0,0,1-1.69-18.93.47.47,0,1,0-.94,0c.09,3.47.32,6.91.64,10.33a6.24,6.24,0,0,1-2.41-4c-.14-.7-1-.4-.92.29a7.29,7.29,0,0,0,3.2,4.88.5.5,0,0,0,.26.06c.56,5.4,1.37,10.76,2.31,16.1a4.94,4.94,0,0,1-3.55-2.48c-.35-.57-1.17,0-.82.56a5.91,5.91,0,0,0,4.57,3c.87,4.87,1.84,9.71,2.82,14.56a6,6,0,0,1-3.84-3.54c-.28-.64-1.1-.08-.82.56a6.81,6.81,0,0,0,4.9,4.14q.59,2.88,1.16,5.76a.48.48,0,0,0,.08.39c1.52,7.65,2.94,15.33,3.9,23.1C106.54,473.73,107.45,473.43,107.37,472.73Z" transform="translate(52.82 35.36)"/><path class="cls-23" d="M113.82,445.7c2.87-1,5.89-2.23,7.29-5.59.27-.63-.55-1.2-.82-.56-1.22,2.94-3.78,4-6.29,4.93q1.52-8.5,3-17c2.93-.91,6.24-2.25,7-6.13.14-.69-.78-1-.92-.29-.65,3.26-3.4,4.41-5.89,5.21q1.68-9.69,3.35-19.38a.37.37,0,0,0,.21,0,7.55,7.55,0,0,0,5.5-5.95c.16-.69-.75-1-.91-.3a6.61,6.61,0,0,1-4.61,5.13q1.55-9.08,3.08-18.14c.11-.7-.8-1-.92-.3-.52,3.12-1,6.23-1.58,9.35a11.93,11.93,0,0,1-2-5.69c-.07-.71-1-.71-1,0a13.27,13.27,0,0,0,2.68,7.07q-1.64,9.66-3.3,19.31a10.49,10.49,0,0,1-2.67-7.72c0-.71-.91-.71-.94,0a11.57,11.57,0,0,0,3.14,8.72.4.4,0,0,0,.27.13q-1.64,9.45-3.29,18.9a10.56,10.56,0,0,1-2.07-7.69c.08-.71-.87-.7-.94,0a11.67,11.67,0,0,0,2.65,8.88.41.41,0,0,0,.13.1q-3.69,20.86-7.5,41.69c-.13.69.78,1,.91.29q3.21-17.46,6.3-35Z" transform="translate(52.82 35.36)"/><path class="cls-23" d="M173.79,434q-3,2-5.92,4.08a12.32,12.32,0,0,1,2.76-6.37c.43-.51-.24-1.29-.67-.78a13.79,13.79,0,0,0-3.1,7.59.62.62,0,0,0,0,.24l-3.45,2.4a.49.49,0,0,0-.44.31q-3.81,2.67-7.59,5.37a18.3,18.3,0,0,1,1.92-8c.31-.62-.51-1.17-.82-.56a19.82,19.82,0,0,0-2.06,9.28q-5.46,3.92-10.88,7.9a19.41,19.41,0,0,1,1.71-7.73c.28-.63-.53-1.19-.82-.56a20.91,20.91,0,0,0-1.84,9q-4,3-8,6a10.8,10.8,0,0,1,1.51-3.71.5.5,0,1,0-.82-.56,12,12,0,0,0-1.78,5v.08q-10.82,8.16-21.48,16.64,8-12.68,15.41-25.88a10.08,10.08,0,0,0,7.81-3.65c.44-.5-.23-1.29-.67-.79a9.18,9.18,0,0,1-6.51,3.31q5-8.94,9.61-18.11a.36.36,0,0,0,.21,0,15,15,0,0,0,7.44-3.06c.51-.39,0-1.35-.48-1a14.1,14.1,0,0,1-6.59,2.85q4.84-9.57,9.35-19.39c2.24,1.71,5.72-.69,7.33-2.56.43-.51-.24-1.29-.67-.79-1.2,1.4-4.47,4-6.22,2.38q3.72-8.15,7.2-16.45c.26-.64-.55-1.2-.82-.56q-1.83,4.36-3.73,8.68a8.5,8.5,0,0,1,.2-6c.26-.64-.56-1.2-.82-.56a9.9,9.9,0,0,0,0,7.65.85.85,0,0,0,.09.14q-3.33,7.57-6.88,15a11.07,11.07,0,0,1-.23-7,.49.49,0,1,0-.92-.3,12.42,12.42,0,0,0,.59,8.52q-4.74,9.89-9.82,19.53A17.45,17.45,0,0,1,134,432c.27-.64-.55-1.2-.81-.56a19,19,0,0,0-1.12,11.11.5.5,0,0,0,.14.27q-4.35,8.2-9,16.22a16.48,16.48,0,0,1,1.59-9.06c.3-.62-.51-1.18-.82-.56a18,18,0,0,0-1.55,11q-6.21,10.71-12.85,21.08l-1.37,1.09a.65.65,0,0,0,0,1c-.08.11-.15.23-.23.35a.5.5,0,1,0,.82.56c.47-.72.92-1.45,1.39-2.17q9.93-7.93,20-15.62a7.47,7.47,0,0,0,6.9,2.55c.6-.1.34-1.17-.25-1.07a6.48,6.48,0,0,1-5.82-2.11q3.45-2.61,6.93-5.21a2.68,2.68,0,0,0,1.45,1.65,24.06,24.06,0,0,0,4.74,2c.59.17.84-.89.25-1.07-1-.3-5.74-1.52-5.55-3.2,3.23-2.41,6.48-4.81,9.73-7.17,1.82,3.73,5.69,3.8,9,3.54.6-.05.61-1.16,0-1.11-2.93.23-6.51.36-8.16-3q6.9-5,13.87-9.87a7.69,7.69,0,0,0,7.63,2.84c.6-.13.34-1.2-.25-1.07a6.77,6.77,0,0,1-6.55-2.36c3.35-2.34,6.71-4.67,10.08-7C174.8,434.6,174.32,433.64,173.79,434Z" transform="translate(52.82 35.36)"/><path class="cls-54" d="M-16,502.74c-.89-9.51-1.2-19.36,1.48-28.39s8.93-17.14,17-18.77c6.61-1.33,13.54,1.76,20-.22,9.74-3,14.41-15.48,19-26S54.76,407.81,64.43,411C73.3,414,76.21,426.68,78,437.26S84,460.5,93.13,461.72c5.71.76,10.89-3.49,16-6.5s12.21-4.47,16,.6c2.57,3.43,2.55,8.53,4.13,12.71,3,8,11.34,11.25,18.81,11.85s15.25-.49,22.25,2.63c12.35,5.51,18.22,25.17,11.5,38.5H-16.63Z" transform="translate(52.82 35.36)"/></g><g class="cls-55"><path class="cls-56" d="M297.58,427.94l-.18-.07a1,1,0,0,0-.26-1.11c-8-6.6-17.95-5.36-27.14-3.86-.88.14-.89,1.9,0,1.87a65.3,65.3,0,0,1,27,4.94C298,430.11,298.56,428.34,297.58,427.94Z" transform="translate(52.82 35.36)"/><path class="cls-57" d="M291.45,398.07c-2.24,12.29,2.88,23.65,7.87,34a.84.84,0,1,0,1.47-.79l-.05-.11a1.13,1.13,0,0,0,0-.68,189.08,189.08,0,0,1-7.68-32.5C292.89,396.91,291.63,397.07,291.45,398.07Z" transform="translate(52.82 35.36)"/><path class="cls-58" d="M320,471.64c-8.71-28-24.52-52.47-45.09-70-1.12-.95-2.37,1.11-1.24,2.06C293.93,421,309.43,445.11,318,472.69c.48,1.52,2.44.47,2-1.05Z" transform="translate(52.82 35.36)"/><path class="cls-59" d="M282.51,404.84a55.16,55.16,0,0,0-18.16-14.14c-3.86-1.84-6.13,5.25-2.27,7.09a46.92,46.92,0,0,1,15.46,11.9c2.93,3.4,7.93-1.41,5-4.85Z" transform="translate(52.82 35.36)"/><path class="cls-60" d="M317.11,428a72,72,0,0,1,14.18-20.59c.59-.59-.25-1.66-.86-1.18-6.34,5.07-13,10.77-14.8,20a.73.73,0,0,0,.36.85c0,.06-.05.11-.07.16C315.5,428.17,316.7,428.89,317.11,428Z" transform="translate(52.82 35.36)"/><path class="cls-61" d="M315.23,458.2a143.11,143.11,0,0,1,10.92-71.41c.52-1.19,2.1-.22,1.58,1A140.82,140.82,0,0,0,317,458.11c.14,1.34-1.65,1.42-1.78.09Z" transform="translate(52.82 35.36)"/><path class="cls-59" d="M321.53,392.46a56.19,56.19,0,0,1,8.89-18.39c2.26-3.05,6.21,1.18,3.95,4.23a47.84,47.84,0,0,0-7.62,15.56c-1.07,3.79-6.3,2.44-5.22-1.4Z" transform="translate(52.82 35.36)"/><path class="cls-62" d="M304.6,401.47l-.19-.16a1.18,1.18,0,0,0,0-1.4c-7.17-11.15-19-14.07-30.13-16.39-1.06-.22-1.64,1.81-.55,2.19a87.33,87.33,0,0,1,29.59,17.56C304.38,404.17,305.6,402.37,304.6,401.47Z" transform="translate(52.82 35.36)"/><path class="cls-63" d="M307.08,364.26c-6.53,13.22-4.25,28.59-1.8,42.79a1,1,0,1,0,2-.26l0-.16a1.21,1.21,0,0,0,.21-.79A237.23,237.23,0,0,1,309,364.9,1,1,0,0,0,307.08,364.26Z" transform="translate(52.82 35.36)"/><path class="cls-64" d="M316.49,461.85c-1.11-36.17-11.53-71.44-29.7-100.7-1-1.6-3.1.23-2.1,1.84,17.92,28.85,28.11,63.54,29.19,99.2.06,2,2.67,1.62,2.61-.34Z" transform="translate(52.82 35.36)"/><path class="cls-59" d="M294.58,368.15a77.54,77.54,0,0,0-16.46-24.33c-3.88-3.82-8.77,3.38-4.91,7.2a65.84,65.84,0,0,1,14.07,20.55c2.29,5.21,9.62,1.86,7.3-3.42Z" transform="translate(52.82 35.36)"/><path class="cls-65" d="M465.85,369.05c-4.72-6.24-6-13.57-6.32-18.45.58-.92,1.16-1.82,1.75-2.72,4.2-6.3,8.69-12.38,13.34-18.28.54,12,6.7,16,6.7,16-4-5.64-4.46-13.58-4.16-19.21q2.37-2.94,4.78-5.8c2.9-3.45,5.87-6.85,8.95-10.13a71,71,0,0,0,3.57,11.81c-1.66-4.51-1-10.59.1-15.6a129,129,0,0,1,10.07-9.14c7.79-6.31,16.67-11.13,26.32-11l.12,0a1,1,0,0,1,1.12.92c2.32,9.05,1.13,18-1.71,26.53a12.61,12.61,0,0,1-8.05,1.12,20.4,20.4,0,0,0,6.59,2.9c-3.52,8.91-8.57,17.31-12.92,24.85q-8,13.86-17.06,26.82a25.72,25.72,0,0,1-15.16-.92,48.13,48.13,0,0,0,11.25,6.48c-4.89,6.88-10,13.74-15.78,19.49-7.23,7.19-15.91,10.39-25.34,9.4a1,1,0,0,1-.91-.77c-4.86-7.45-5.33-17.51-4-26.44a63.8,63.8,0,0,1,6.47-19.47A33.25,33.25,0,0,0,465.85,369.05Z" transform="translate(52.82 35.36)"/><path class="cls-66" d="M524.41,297.77q2-2.79,3.92-5.56a15.28,15.28,0,0,0,4.8.33q-.07-.63-.18-1.26a14.37,14.37,0,0,1-3.81-.19c1-1.34,1.92-2.67,2.88-4a1,1,0,0,0-.95-.5H531c-.32,0-.63,0-.94,0-.55.78-1.11,1.54-1.66,2.32a10.37,10.37,0,0,1-.81-2.18l-1.1.15a12,12,0,0,0,1.17,3.06c-1.32,1.88-2.65,3.76-4,5.64a43.56,43.56,0,0,1-2.85-7.37l-1,.35a47.45,47.45,0,0,0,3.13,8.08q-2.94,4.23-5.83,8.5a22.45,22.45,0,0,1-5.19-12.74l-1,.64a24.14,24.14,0,0,0,5.55,13.1l-1.61,2.38q-1.84,2.73-3.67,5.48c-3.07-4.67-6.28-9.82-7.65-15.48l-.93.78c1.5,5.75,4.76,11,7.89,15.74q-3,4.47-5.93,9a27.84,27.84,0,0,1-9.12-18.13l-.83.81c0,.15-.06.29-.09.44A28.87,28.87,0,0,0,503.86,325q-3.53,5.39-7,10.82c-4.26-6-8.84-12.81-10.41-20.45l-.9,1c1.79,7.62,6.36,14.42,10.64,20.47h0q-3.27,5.1-6.51,10.21c-6.58-6.11-9.84-15.67-8.83-25.16l-1.2,1.44c-.55,9.4,2.83,18.71,9.39,24.75l-1.8,2.84h0l-4.35,6.94-.21.34-.06.09c-6.62-6.44-10.22-16.51-9.75-26.47-.37.48-.74.95-1.1,1.43-.08,9.88,3.59,19.68,10.21,26.07q-1.92,3.08-3.82,6.16c-1.15,1.84-2.28,3.69-3.42,5.54-6.82-6.54-10.87-16.41-11.1-26.63l-1,1.5c.58,10.08,4.71,19.7,11.48,26.16q-3.42,5.55-6.8,11.14c-6.67-5.95-11.06-14.85-12.33-24.43-.28.59-.56,1.18-.83,1.77,1.56,9.31,6,17.88,12.53,23.69q-2.6,4.29-5.17,8.6l-.72,1.22a43.84,43.84,0,0,1-11.37-18.64c-.1.51-.19,1-.27,1.53l-.12.81a44.9,44.9,0,0,0,11.13,17.35c-.18.32-.37.64-.56.95l-.29.49c-.61,1-1.21,2.08-1.81,3.13l-.33.57c-.6,1.06-1.2,2.12-1.79,3.18-.09.15-.17.3-.25.45s-.13.24-.2.35c.71.06,1.41.09,2.11.1,1.35-2.43,2.74-4.84,4.15-7.23l.06.05a42.23,42.23,0,0,0,9.49,4q.81-.4,1.59-.87a41.65,41.65,0,0,1-10.52-4.19q2.11-3.58,4.26-7.12c.63-1.06,1.27-2.11,1.91-3.17a.64.64,0,0,0,.25.36,32.61,32.61,0,0,0,13.9,5.75l1-1.14A31.93,31.93,0,0,1,468.65,385l-.15-.08q1.29-2.15,2.6-4.29l1.13-1.87,3.29-5.39A54.73,54.73,0,0,0,492.46,379l.84-1.14a54.14,54.14,0,0,1-17.14-5.56c.22-.35.43-.7.64-1.05l.59-1q3.3-5.4,6.63-10.76a41.08,41.08,0,0,0,17.91,6c.27-.4.55-.8.82-1.21a40.18,40.18,0,0,1-18.09-5.83l3.38-5.43c.68-1.1,1.37-2.19,2.06-3.29A53.33,53.33,0,0,0,509,354.69l.77-1.22a52.26,52.26,0,0,1-19-4.76q3.21-5.1,6.45-10.16a36.74,36.74,0,0,0,18.95,4.27l.75-1.29a35.78,35.78,0,0,1-19-4q3.51-5.46,7-10.88a35.44,35.44,0,0,0,18.44,3.5l.7-1.34a34.39,34.39,0,0,1-18.45-3.21c2.08-3.17,4.16-6.32,6.27-9.47h0a29.72,29.72,0,0,0,16.39,3.82l.53-1.31a28.77,28.77,0,0,1-16.24-3.55q2.49-3.69,5-7.37a.62.62,0,0,0,.38.38,25.09,25.09,0,0,0,14.24,0c.1-.46.2-.92.29-1.39a24.32,24.32,0,0,1-14.31.15q2.7-4,5.44-7.88a26.57,26.57,0,0,0,9.82-.47c0-.44,0-.87,0-1.31A25.46,25.46,0,0,1,524.41,297.77Z" transform="translate(52.82 35.36)"/><path class="cls-67" d="M419.37,352.5c5.3-1.93,8.7-6.21,10.58-9.33-.07-.88-.14-1.76-.23-2.64-.63-6.19-1.53-12.38-2.6-18.52-4.5,7.75-10,7.53-10,7.53,4.62-1.87,7.67-7,9.4-10.86q-.57-3.07-1.18-6.13c-.75-3.67-1.56-7.35-2.48-11a44.52,44.52,0,0,1-6.46,6.19c2.66-2.22,4.32-6.59,5.32-10.45-1-3.7-2.22-7.34-3.57-10.87-3-7.91-7.29-15.33-13.78-19.79l-.09-.05a.72.72,0,0,0-1.06.08c-4.67,4.95-7,11.49-8,18.52a11.82,11.82,0,0,0,5,4.57,15.23,15.23,0,0,1-5.39-1.19c-.73,7.62-.26,15.61,0,22.7q.56,13,2.14,26a22.63,22.63,0,0,0,10.43,6.56,33.48,33.48,0,0,1-9.74-1,139,139,0,0,0,3.81,20.49c2.34,8.21,7,14.46,13.66,18.27a.7.7,0,0,0,.88-.09c5.81-2.67,9.6-9.17,11.77-15.77a51.93,51.93,0,0,0,2.4-16.06A21.12,21.12,0,0,1,419.37,352.5Z" transform="translate(52.82 35.36)"/><path class="cls-68" d="M404.88,277.21q-.35-2.79-.71-5.58a13.24,13.24,0,0,1-3.31-2.05l.55-.75A12.43,12.43,0,0,0,404,270.5c-.17-1.34-.36-2.68-.54-4a.72.72,0,0,1,.8.12l.09.05c.21.14.42.3.62.45.1.78.21,1.56.31,2.34a6.07,6.07,0,0,0,1.29-1.08l.68.62a6.88,6.88,0,0,1-1.83,1.49q.36,2.82.7,5.64a26.94,26.94,0,0,0,4.44-3.57c.19.23.37.47.55.71a29.58,29.58,0,0,1-4.87,3.92q.5,4.2,1,8.43a14,14,0,0,0,7.86-6c.16.3.31.61.47.92a14.86,14.86,0,0,1-8.23,6.11c.09.79.17,1.57.26,2.36.19,1.79.37,3.59.56,5.39,3.66-1.67,7.57-3.58,10.45-6.71.11.32.23.64.35,1-3,3.12-7,5.08-10.7,6.77q.43,4.4.86,8.8a17.23,17.23,0,0,0,12.34-7.79c.09.32.19.63.28.95l-.09.33a17.8,17.8,0,0,1-12.44,7.49q.49,5.28.94,10.54c4.93-2,10.32-4.36,14-8.71l.24,1.1c-3.81,4.25-9.21,6.62-14.16,8.63h0c.28,3.29.56,6.59.82,9.89,6.5-1,12-5.8,14.58-12.61l.3,1.53c-2.88,6.53-8.35,11.14-14.8,12.07l.21,2.74h0q.27,3.35.51,6.69l0,.32v.1c6.64-1.17,12.52-6.19,15.64-13.06.09.49.17,1,.25,1.48-3.36,6.63-9.19,11.43-15.82,12.57q.22,3,.43,5.92c.13,1.77.25,3.54.37,5.31,6.81-1.13,12.92-5.81,16.59-12.52.06.49.12,1,.17,1.48-3.86,6.46-9.94,10.93-16.69,12q.38,5.33.7,10.65a24.56,24.56,0,0,0,16.65-10.46c0,.52,0,1-.05,1.57a25.12,25.12,0,0,1-16.54,9.88q.26,4.1.49,8.19l.06,1.15a27,27,0,0,0,14-7.05c-.12.38-.22.76-.35,1.14-.06.2-.14.4-.2.6a27.58,27.58,0,0,1-13.42,6.31c0,.3,0,.6.05.9s0,.31,0,.46c.05,1,.1,2,.14,2.95,0,.18,0,.36,0,.54,0,1,.07,2,.1,3,0,.14,0,.28,0,.42v.32c-.49-.29-1-.6-1.43-.93q-.1-3.39-.28-6.79h-.06a31.55,31.55,0,0,1-7.7-1.84c-.26-.44-.51-.88-.76-1.34a31.65,31.65,0,0,0,8.47,2.19q-.18-3.39-.39-6.77l-.18-3a.43.43,0,0,1-.29.12,24.59,24.59,0,0,1-11.26-2.74l-.3-1.25a24.26,24.26,0,0,0,11.67,3l.13,0c-.09-1.37-.17-2.73-.26-4.1,0-.59-.07-1.18-.11-1.78l-.33-5.15a42.94,42.94,0,0,1-13.26-4.26c-.06-.39-.11-.77-.16-1.16a41.94,41.94,0,0,0,13.35,4.4l-.06-1-.06-.92q-.35-5.16-.72-10.31a32,32,0,0,1-14-4.48c-.05-.4-.09-.8-.13-1.19a31.44,31.44,0,0,0,14.08,4.66c-.12-1.74-.25-3.48-.38-5.22l-.24-3.17a43,43,0,0,1-14.32-5.67l-.09-1.18a42.13,42.13,0,0,0,14.33,5.83q-.37-4.92-.79-9.84a29.84,29.84,0,0,1-14.12-6.12l-.06-1.21a29.36,29.36,0,0,0,14.1,6.32q-.45-5.29-.95-10.59a29.37,29.37,0,0,1-13.51-6.39c0-.41,0-.82,0-1.23a28.79,28.79,0,0,0,13.43,6.59c-.3-3.1-.6-6.19-.92-9.28h0a24.27,24.27,0,0,1-12.26-5.21c0-.38.06-.75.1-1.13a23.44,23.44,0,0,0,12.06,5.32q-.39-3.64-.79-7.28a.39.39,0,0,1-.38.07,22.42,22.42,0,0,1-9.5-6.74c.09-.35.18-.71.28-1.07a22,22,0,0,0,9.51,6.88c-.3-2.61-.6-5.23-.92-7.84a24.12,24.12,0,0,1-6.39-5c.14-.3.29-.59.44-.88A23.59,23.59,0,0,0,404.88,277.21Z" transform="translate(52.82 35.36)"/><path class="cls-69" d="M446.92,331.88c7.07-1.31,13.12-7.4,17.32-13v-.21c.48-12.87.95-25.75.36-38.62-.21-4.56-.57-9.12-1.1-13.64a53.12,53.12,0,0,1-9.14.72c3.27-.58,6.15-3.17,8.42-6a124.17,124.17,0,0,0-5.43-22.39.57.57,0,0,0-.21-.31.4.4,0,0,0-.57,0c-11.33,8.24-18.34,21.26-22.72,35.55,1.4,6,3.64,12.95,7.09,17.88a47.89,47.89,0,0,1-9.45-9.08c-.91,3.91-1.65,7.85-2.27,11.76-2,12.85-2.93,25.9-4.68,38.79-.06.38-.11.76-.17,1.14,1.61,4.08,4.22,9.18,7.84,11.47a30.76,30.76,0,0,1-9.14-3.22c-.64,3.56-1.37,7.09-2.25,10.58-1.49,5.86-3.8,11.46-5,17.42-2.15,10.93,2.12,22.8,10.57,28.21a.42.42,0,0,0,.14.09c8.12,3.61,17.11-.12,23.17-6.91,7.14-8,9.94-19.79,11.45-30.87s2.21-22.28,2.7-33.47C456.2,331.7,446.92,331.88,446.92,331.88Z" transform="translate(52.82 35.36)"/><path class="cls-70" d="M437.91,364.08c8.53-1.94,17.68-4.9,24.3-11.47.07-.67.14-1.35.2-2-6.46,7.08-15.88,10.11-24.5,12.08.34-1.38.66-2.77.95-4.18.16-.83.33-1.66.48-2.5.05-.24.09-.48.13-.72.11-.6.22-1.19.32-1.79,0-.26.08-.53.13-.79.09-.58.19-1.16.28-1.74,0-.25.08-.49.11-.74.1-.61.19-1.21.27-1.82l.09-.63.27-1.95c0-.13,0-.26.05-.4a39.09,39.09,0,0,0,22.57-10.83c0-.64.06-1.27.1-1.91A38.43,38.43,0,0,1,441.17,344c0-.26.07-.53.1-.79s0-.23,0-.35l.27-2.28v-.17c.68-6,1.2-12.11,1.74-18.17a35.44,35.44,0,0,0,21.15-9.85l.06-1.86a34.71,34.71,0,0,1-21.08,10.31c.06-.6.11-1.21.16-1.81q.66-7.06,1.52-14.09a24.3,24.3,0,0,0,19.72-7.63c0-.62,0-1.24,0-1.87a23.5,23.5,0,0,1-19.57,8.12c.65-5.2,1.39-10.4,2.22-15.57a21.41,21.41,0,0,0,17.23-3.9c0-.54,0-1.08-.05-1.63a20.55,20.55,0,0,1-17,4.17c.47-2.85.95-5.69,1.48-8.53.22-1.23.46-2.45.7-3.68a26.44,26.44,0,0,0,14-3.81c-.05-.49-.09-1-.14-1.46A25.41,25.41,0,0,1,450.19,273q1.32-6.67,2.84-13.29a21.49,21.49,0,0,0,8.56-5.39c-.1-.51-.21-1-.32-1.52a20.35,20.35,0,0,1-7.87,5.34q2.09-8.94,4.52-17.76c-.18-.56-.36-1.12-.56-1.67a.57.57,0,0,0-.21-.31.39.39,0,0,0-.3-.13q-2.66,9.44-4.88,19a41.12,41.12,0,0,1-4.06-10.79c-.32.38-.64.77-1,1.16a43.31,43.31,0,0,0,4.59,11.43Q450,266,448.61,273a30.6,30.6,0,0,1-7.74-16c-.3.55-.6,1.11-.89,1.67a31.81,31.81,0,0,0,8.33,15.89q-1.15,6-2.15,12a44.52,44.52,0,0,1-10.8-17.14c-.21.59-.41,1.18-.61,1.78a45.32,45.32,0,0,0,11.16,16.92c-.83,5.16-1.58,10.33-2.22,15.53a48.1,48.1,0,0,1-12.78-18.22c-.15.69-.29,1.39-.43,2.08a48.79,48.79,0,0,0,13,17.72c-.32,2.66-.63,5.32-.9,8s-.53,5.35-.77,8a49.31,49.31,0,0,1-14.06-15.95c-.09.69-.17,1.37-.25,2.05a50.16,50.16,0,0,0,14.17,15.43h0c-.44,5-.87,10-1.4,15-.06.61-.13,1.22-.2,1.83,0,.14,0,.28,0,.42-.07.57-.13,1.13-.2,1.7l-.06.52c0,.26-.07.53-.1.8a49.59,49.59,0,0,1-14.39-15.69l-.24,2a49.93,49.93,0,0,0,14.45,15.16l0,.26c-.05.4-.1.79-.16,1.19s-.09.67-.14,1-.12.9-.19,1.35-.09.62-.13.93c-.08.51-.16,1-.23,1.53-.05.25-.08.51-.13.76-.12.77-.25,1.54-.38,2.3q-.67,3.92-1.57,7.77a48.13,48.13,0,0,1-14.32-14.51c-.12.57-.23,1.14-.36,1.71A49.63,49.63,0,0,0,436.23,363a109.12,109.12,0,0,1-3.1,10.49c-1,2.8-2.12,5.53-3.31,8.21a60.57,60.57,0,0,1-12.08-18.15c-.18.58-.36,1.17-.53,1.76a62.14,62.14,0,0,0,12,17.6l.06.05c-1.2,2.64-2.46,5.24-3.74,7.83-.86,1.75-1.73,3.5-2.59,5.26v0h0c-4.81,9.86-9.33,20-10.6,31.41a.8.8,0,1,0,1.57.18c1.23-11,5.62-20.89,10.27-30.43.66-1.34,1.31-2.67,2-4,1.54-3.12,3-6.24,4.4-9.39h0c9.48-.67,19.87-2.26,27.8-8.47q.33-1.1.6-2.19c-7.7,6.8-18.19,8.5-27.78,9.23A129.3,129.3,0,0,0,437.56,364,.46.46,0,0,0,437.91,364.08Z" transform="translate(52.82 35.36)"/><path class="cls-71" d="M397,376.86c-1.1,4-4.94,6.16-8.53,6.39s-7.11-1-10.68-1.5-7.52-.16-10.2,2.64c-2.83,3-3.51,7.93-6,11.29-5.09,6.82-14.66,4.17-21.76,7.77-5.65,2.87-9.25,9.53-11.38,16.3s-3.18,14-5.61,20.62-6.72,12.9-12.69,14.69c-4.93,1.47-10.17-.33-15.18.58-5.92,1.08-11.17,6.2-13.14,12.82-1.34,4.52-1.22,9.44-1.88,14.17s-2.44,9.73-6.13,11.81c-2.93,1.66-6.44,1.11-9.55,2.23-4.35,1.57-7.44,6.29-8.85,11.35s-5.55,13.59-1.42,15.82c1.76.94,151.56-7.48,151.56-7.48Z" transform="translate(52.82 35.36)"/><path class="cls-72" d="M310.81,531.75c-3.59-10-7.23-20.22-7.33-31s4.22-22.4,12.66-26.75c6.38-3.29,14.3-2.17,19.85-7.13,4.83-4.32,6.38-12,6.59-19.16s-.55-14.39,1-21.27,6.49-13.46,12.57-13.22c3.94.16,7.56,3.13,11.5,3,5-.22,9-5.65,10.23-11.36s.55-11.73.2-17.62c-.64-10.7.23-22.25,5.93-30.64s17.58-11.58,24.12-4.06c4.36,5,5.26,13.09,9.56,18.17,8.36,9.87,24.24,3.37,33.27,12.4,8.84,8.86,5.35,26.21,11.26,37.95,3.77,7.5,11,11.78,18.24,13.71s14.76,1.94,22.12,3.12c31.13,5,58.68,33,67.29,68.37Z" transform="translate(52.82 35.36)"/><path class="cls-73" d="M391.36,509.79c5.12-13.25,3.81-29.43-.07-42.87a.82.82,0,1,0-1.56.51c3.56,12.33,5,27.23.86,39.67a208.45,208.45,0,0,0-19.18-44.94,129.41,129.41,0,0,0,.07-20.27c-.09-1.2-1.71-1.21-1.61,0a127.26,127.26,0,0,1,.09,17.79q-2.9-4.87-6.06-9.54c-.65-1-1.79.39-1.15,1.33q3.72,5.49,7.08,11.27a.65.65,0,0,0,.14.26,201,201,0,0,1,9.66,19,37,37,0,0,1-18.1-4.23c-.94-.49-1.76,1.14-.81,1.63a38.32,38.32,0,0,0,19.67,4.47h.05a216,216,0,0,1,16.77,67c.1,1.2,1.72,1.22,1.61,0A221.09,221.09,0,0,0,391.36,509.79Z" transform="translate(52.82 35.36)"/><path class="cls-73" d="M447.69,476.71c-.65,13.82-6.93,29.71-18.76,34.41a461.84,461.84,0,0,0-8.37-61c4.61-1,8.51-6,11.09-10.23,5.31-8.63,7.4-19.34,7.22-29.85a.81.81,0,1,0-1.61,0c.16,9.76-1.66,19.56-6.33,27.75-2.32,4.07-6.26,9.63-10.76,10.49q-3.93-18.66-9.42-36.82-4.83-16-10.83-31.41c-.43-1.11-1.82-.15-1.39,1,4.91,12.7,9.24,25.71,13,38.94-8-1.32-14.95-6.53-20.28-13.53-.7-.91-1.84.43-1.15,1.34,5.77,7.57,13.31,12.95,22,14.17a449.48,449.48,0,0,1,13.46,69.43,43.68,43.68,0,0,1-16.71-23.66.82.82,0,1,0-1.55.5c3.25,10.84,9.73,19.85,18.33,25.4l.19.09c.09.85.19,1.71.27,2.56q1.71,16.7,2.19,33.53a.82.82,0,1,0,1.62,0q-.25-8.38-.8-16.76c12.75-4.78,19.55-21.55,20.25-36.34C449.37,475.49,447.75,475.5,447.69,476.71Z" transform="translate(52.82 35.36)"/><path class="cls-73" d="M510.47,487c-9,11.11-21.12,18-34.11,19.21q3.94-15.66,9.21-30.79c7.78-1.19,16.06-4,19.7-13,.45-1.1-.94-2.06-1.39-1-3.28,8-10.58,10.76-17.59,11.93q3.16-8.89,6.78-17.58c.45-1.09-.94-2-1.4-.95a357.71,357.71,0,0,0-13.83,39.51,100.82,100.82,0,0,1-2.44-31.4c.1-1.21-1.52-1.2-1.61,0a102,102,0,0,0,3,34,1,1,0,0,0,.22.41,365.65,365.65,0,0,0-8.48,38.54c-.2,1.19,1.36,1.7,1.55.51q2.36-14.29,5.8-28.26c13.58-1.15,26.36-8.2,35.72-19.81C512.32,487.4,511.18,486.06,510.47,487Z" transform="translate(52.82 35.36)"/></g></g></g></svg>